<svg width="113" height="29" viewBox="0 0 113 29" fill="none" xmlns="http://www.w3.org/2000/svg">
<g id="logo-inverse 1" clip-path="url(#clip0_5075_81822)">
<path id="Vector" d="M24.3501 3.55595C21.7587 1.36852 18.4245 0 14.7224 0C6.57329 0 0 6.4746 0 14.5C0 22.5254 6.57329 29 14.7217 29C18.4252 29 21.758 27.6322 24.3508 25.444V28.3613H29.628V0.546857H24.3501V3.55664V3.55595ZM14.814 24.1667C9.70698 24.1667 5.5122 19.963 5.5122 14.8452C5.5122 9.72743 9.70698 5.52381 14.814 5.52381C19.9211 5.52381 24.1159 9.72743 24.1159 14.8452C24.1159 20.0542 19.9211 24.1667 14.814 24.1667ZM46.3024 23.8021C49.1502 23.8021 51.723 22.5247 53.3767 20.5189L56.5 24.8054C53.9279 27.4499 50.2526 29 46.3024 29C38.2181 29 31.6951 22.5254 31.6951 14.5C31.6951 6.4746 38.2181 0 46.3024 0C50.2526 0 53.8355 1.64126 56.5 4.19464L53.3767 8.48112C51.723 6.4746 49.1502 5.1979 46.3024 5.1979C41.0659 5.1979 36.9317 9.39324 36.9317 14.5C36.9317 19.6979 41.1575 23.8021 46.3024 23.8021ZM107.722 0.546857V3.55664C105.13 1.36783 101.796 0 98.0936 0C89.9452 0 83.3719 6.4746 83.3719 14.5C83.3719 22.5254 89.9452 29 98.0936 29C101.797 29 105.13 27.6322 107.723 25.444V28.3613H113V0.546857H107.722ZM98.186 24.1667C93.0789 24.1667 88.8841 19.963 88.8841 14.8452C88.8841 9.72743 93.0789 5.52381 98.186 5.52381C103.293 5.52381 107.488 9.72743 107.488 14.8452C107.488 20.0542 103.293 24.1667 98.186 24.1667ZM76.0462 11.919V0.690476H81.3049V28.3095H76.0462V17.081H64.5147V28.3095H59.2561V0.690476H64.5147V11.919H76.0462Z" fill="#50BE14"/>
</g>
<defs>
<clipPath id="clip0_5075_81822">
<rect width="113" height="29" fill="white"/>
</clipPath>
</defs>
</svg>
