<svg width="576" height="155" viewBox="0 0 576 155" fill="none" xmlns="http://www.w3.org/2000/svg">
<path d="M338.936 21.9998H343.849C352.836 22.6935 361.733 26.1333 369.021 32.3988C375.451 37.7606 380.707 45.0357 384.125 53.3711C387.882 62.385 389.377 72.6315 388.626 82.604C383.143 79.0206 376.73 78.7289 370.631 78.0023C368.221 77.9822 366.398 76.0978 364.741 74.304C363.385 72.7927 361.855 71.5026 360.611 69.8633C359.096 67.4971 358.547 64.5015 356.998 62.1595C355.639 59.9128 353.59 57.9886 351.178 57.7322C348.511 57.37 345.928 58.4083 343.371 59.1109C338.867 60.3901 334.435 62.0778 329.853 62.9594C327.423 63.4145 324.649 63.4786 322.68 61.4682C319.994 58.9274 319.468 54.425 320.355 50.7134C320.712 48.1131 322.79 45.9569 325.078 46.1315C327.343 45.8642 329.733 46.6131 331.943 45.736C334.585 44.5805 335.118 40.8182 334.452 37.9771C334.085 36.8482 333.649 35.5381 332.604 35.072C330.865 34.1507 328.938 33.7133 327.042 33.5984C325.998 33.8171 325.595 35.4939 326.084 36.4925C326.993 37.3784 328.401 37.3011 329.267 38.2997C329.711 38.9558 329.762 40.0185 329.362 40.7144C328.338 41.894 326.815 41.3772 325.589 41.0347C323.493 40.341 321.178 39.8992 319.091 40.8381C317.157 41.6555 315.545 43.3522 314.513 45.4179C312.47 49.0741 311.748 53.5061 311.543 57.803C311.083 64.7091 312.766 71.9046 316.508 77.3151C317.936 79.3631 319.734 81.1017 321.822 82.1556C323.7 83.0856 325.764 83.0856 327.754 83.4037C328.313 83.4855 328.852 83.9451 328.957 84.6234C329.141 85.9245 328.814 87.4291 327.942 88.3195C326.588 89.7575 324.976 90.7849 323.385 91.7989C323.373 91.9822 323.347 92.3468 323.337 92.5279C324.995 93.8448 326.821 94.8566 328.401 96.3147C329.923 97.6137 331.466 99.1226 333.378 99.5181C335.418 100.174 337.594 99.664 339.624 100.402C340.855 100.85 341.944 102.037 342.134 103.581C342.482 108.34 342.131 113.116 342.1 117.884C341.973 123.025 343.273 128 344.28 132.946C343.995 133.008 343.712 133.07 343.436 133.125H339.143C334.242 132.582 329.329 131.649 324.71 129.586C315.532 125.578 307.513 118.122 302.049 108.607C297.348 100.541 294.618 90.9573 294.056 81.2277C293.678 72.5873 294.81 63.7901 297.723 55.8101C301.434 45.4886 307.93 36.5853 316.025 30.6292C322.841 25.4463 330.855 22.6493 338.936 21.9998ZM18.112 48.0669C20.0627 43.454 24.4379 40.2615 28.866 40.5597C32.2299 40.4404 35.5862 42.157 37.7786 45.1462C40.0143 47.9143 40.6784 51.7519 41.5878 55.2823C45.3763 70.3691 49.2117 85.4429 53.0228 100.523C54.2984 100.605 55.5849 100.61 56.851 100.839C57.3755 100.974 57.6829 101.604 57.7093 102.198C57.8376 104.425 57.8754 106.683 57.5887 108.896C57.3472 110.063 56.066 109.999 55.2868 109.968C40.5068 109.886 25.7247 109.948 10.9427 109.926C7.29762 109.875 3.61107 110.246 0 109.495V101.389C1.3584 100.378 3.10545 100.764 4.62422 100.481C8.7296 84.1086 12.8991 67.7579 17.0121 51.3873C17.3366 50.2628 17.6196 49.1118 18.112 48.0669ZM26.4473 51.427C25.2888 52.6244 25.0795 54.5399 24.6267 56.1637C20.8873 70.9922 17.1441 85.8207 13.3821 100.643C23.6532 100.649 33.9241 100.667 44.197 100.632C40.5557 86.0549 36.8333 71.507 33.1658 56.9392C32.7186 55.1452 32.3808 53.2409 31.43 51.6943C30.1716 50.1346 27.7792 49.8474 26.4473 51.427ZM425.713 40.6746C433.268 39.3999 441.233 43.8824 445.071 51.6016C445.651 52.629 446.5 54.2704 445.673 55.4059C444.268 56.4818 442.638 57.0363 441.106 57.8052C440.294 58.0681 439.15 58.7418 438.638 57.5909C437.476 55.7351 436.515 53.6297 434.886 52.2622C432.043 49.8099 428.084 48.8136 424.744 50.3578C420.267 52.0854 417.086 57.3921 417.001 62.8777C416.889 71.3435 416.969 79.8138 416.961 88.2818C416.884 94.1982 420.704 99.8142 425.635 101.067C429.133 102.116 432.814 101.084 436.01 99.3193C437.921 98.3251 439.431 96.5864 440.999 95.0156C441.578 94.2555 442.709 94.2202 443.293 94.9979C444.527 96.3302 445.817 97.649 446.854 99.2109C447.522 100.331 446.652 101.606 445.956 102.348C441.179 107.617 434.675 110.77 428.084 110.608C418.313 110.947 409.282 101.221 408.677 89.8151C408.216 81.5833 408.564 73.3207 408.469 65.0758C408.365 57.9267 410.873 50.6604 415.557 45.9856C418.404 43.1202 421.972 41.185 425.713 40.6746ZM78.5683 57.6659C85.9924 57.1756 93.3976 62.2038 96.7709 69.9516C99.4764 75.7178 99.1386 82.5598 98.9915 88.907C98.6765 96.054 95.3427 102.969 90.1864 106.842C84.3962 111.452 76.4307 111.87 70.2425 108.085C66.7332 105.821 63.6429 102.485 61.8864 98.2168C59.5734 93.4118 59.5319 87.6698 59.5998 82.3102C59.5526 77.4389 60.4036 72.4083 62.7412 68.3058C66.0654 61.9409 72.2216 57.8979 78.5683 57.6659ZM77.8119 66.9536C73.8385 67.5656 70.3255 70.917 68.8973 75.2781C67.7427 78.4706 68.1633 82.0363 68.086 85.4054C68.0823 88.4496 68.0916 91.7393 69.4294 94.4633C71.6631 99.507 76.9571 102.562 81.7153 101.12C86.4509 100.088 90.1506 94.936 90.5524 89.3865C90.5826 85.6616 90.6562 81.928 90.4543 78.2098C89.7921 71.2595 83.7209 65.8092 77.8119 66.9536ZM207.806 57.6659C214.505 57.2772 221.271 61.3202 224.889 67.9524C226.155 70.1417 227.072 72.5962 227.613 75.1632C228.379 79.3233 228.04 83.6159 228.109 87.8378C228.209 95.7712 224.334 103.546 218.472 107.482C212.947 111.329 205.759 111.711 199.982 108.393C193.373 104.825 188.823 96.6019 188.872 88.0609C188.904 83.1343 188.407 78.0154 189.85 73.2766C192.303 64.391 199.804 57.8074 207.806 57.6659ZM207.048 66.9604C201.737 67.6231 197.24 73.365 197.335 79.6547C197.341 83.3641 197.228 87.0844 197.464 90.787C198.268 95.7071 201.656 99.94 205.835 101.078C210.578 102.582 216.003 99.761 218.282 94.6732C219.816 91.704 219.872 88.1028 219.822 84.7426C219.799 80.9913 219.961 76.8731 218.238 73.5372C216.108 68.9596 211.47 66.2025 207.048 66.9604ZM243.422 62.6257C248.382 57.0009 256.313 56.3205 262.425 59.5747C268.643 62.5993 273.237 69.7196 274.027 77.547C274.208 81.8992 274.218 86.2692 274.042 90.6213C273.269 98.8752 268.197 106.289 261.57 109.161C257.877 110.737 253.776 111.083 249.953 109.986C247.491 109.245 245.32 107.591 243.395 105.693C243.325 111.969 243.441 118.246 243.374 124.52C243.395 125.523 242.636 126.584 241.683 126.257C239.795 126.356 237.902 126.372 236.02 126.25C235.491 126.228 235.089 125.651 234.989 125.084C234.764 122.174 234.908 119.249 234.888 116.335C234.889 97.9207 234.898 79.5066 234.879 61.0947C234.666 60.0541 235.12 58.7285 236.099 58.5761C238.113 58.3884 240.175 58.2469 242.188 58.5476C243.685 59.0599 243.302 61.2273 243.422 62.6257ZM253.083 66.9625C247.575 67.6718 243.063 73.8267 243.368 80.3196C243.364 83.6026 243.288 86.8921 243.485 90.1729C243.957 94.6754 246.66 98.6343 250.195 100.408C254.384 102.655 259.658 101.206 262.751 97.2668C264.813 94.6887 265.891 91.1317 265.845 87.619C265.762 83.7218 266.188 79.7144 265.233 75.921C263.639 70.1062 258.294 65.9684 253.083 66.9625ZM468.662 58.0304C473.134 56.6432 478.227 58.9738 480.706 63.547C482.087 65.7673 482.438 68.5245 483.131 71.0805C486.09 82.783 489.062 94.481 492.009 106.188C492.177 107.284 492.883 109.108 491.729 109.769C489.459 110.094 487.147 109.999 484.87 109.91C483.89 109.809 483.822 108.315 483.51 107.52C480.769 96.5443 477.964 85.5866 475.202 74.6153C474.673 72.6932 474.424 70.6299 473.499 68.8912C472.477 67.053 469.931 67.1834 468.954 68.9751C468.164 70.8684 467.788 72.9474 467.266 74.9513C464.736 84.9458 462.206 94.9384 459.679 104.931C459.242 106.634 458.965 108.441 458.127 109.952C455.786 109.897 453.446 110.056 451.119 109.884C449.97 109.694 450.067 108.05 450.306 107.041C453.646 93.922 456.935 80.7836 460.274 67.665C461.297 62.9948 464.565 58.9673 468.662 58.0304ZM513.446 57.6683C521.192 57.1799 528.921 62.7142 532.034 71.0496C534.373 76.4624 533.67 82.666 533.731 88.5028C533.746 96.9751 529.021 104.962 522.534 108.508C517.496 111.159 511.477 111.417 506.393 108.797C501.299 106.325 497.276 101.153 495.51 95.0554C494.214 90.5241 494.498 85.6838 494.485 80.9846C494.288 73.0115 498.05 65.1355 503.87 61.0306C506.73 58.9274 510.082 57.8538 513.446 57.6683ZM512.689 66.9625C507.112 67.6761 502.578 73.9769 502.966 80.5429C502.985 83.8234 502.87 87.1153 503.1 90.3917C503.883 97.3089 510.106 102.657 515.983 101.27C520.076 100.512 523.648 96.8979 524.848 92.243C525.832 88.5977 525.371 84.7337 525.429 80.9824C525.456 77.5536 524.617 74.0343 522.658 71.4274C520.22 68.171 516.393 66.2533 512.689 66.9625ZM107.427 58.5696C109.342 58.3376 111.279 58.3509 113.202 58.4745C114.104 58.5476 114.921 59.5306 114.683 60.6617C114.781 67.3668 114.664 74.0742 114.711 80.7814C117.681 80.5958 121.245 81.42 123.711 78.9323C125.55 76.6944 126.675 73.82 128.025 71.18C129.691 67.6982 131.493 64.307 133.125 60.8032C133.548 60.0718 133.848 59.1506 134.512 58.6712C135.478 58.3221 136.534 58.5033 137.536 58.4061C139.338 58.5343 141.43 57.8647 142.955 59.3362C142.889 60.3369 142.762 61.3642 142.274 62.2215C138.77 69.068 135.549 76.1155 131.92 82.8757C134.736 84.6454 136.649 87.7958 137.915 91.1494C139.63 95.6474 141.183 100.227 142.934 104.708C143.362 105.894 143.904 107.071 143.945 108.395C144.011 109.007 143.694 109.745 143.124 109.813C140.826 110.025 138.512 110.039 136.214 109.913C135.448 109.84 135.25 108.771 134.921 108.136C133.325 103.881 131.863 99.5556 130.199 95.336C129.471 93.3808 128.163 91.6465 126.395 90.966C122.615 89.6448 118.598 90.1552 114.711 90.0449C114.662 95.9347 114.785 101.829 114.683 107.719C114.76 108.501 114.547 109.48 113.879 109.822C111.708 110.045 109.521 110.019 107.348 109.904C106.8 109.893 106.423 109.268 106.34 108.684C106.176 107.193 106.21 105.684 106.201 104.184C106.253 89.8216 106.193 75.4571 106.223 61.0947C106.053 60.0742 106.5 58.8038 107.427 58.5696ZM149.699 59.4245C150.175 58.2162 151.53 58.5297 152.437 58.4436C162.502 58.4436 172.568 58.4767 182.635 58.4281C183.412 58.3841 184.664 58.3664 184.949 59.4798C185.189 61.8436 185.176 64.2517 185.067 66.629C184.977 67.6319 183.94 68.0649 183.195 67.9214C179.297 68.045 175.396 67.9016 171.498 67.9545C171.486 81.2122 171.512 94.4698 171.497 107.728C171.549 108.428 171.5 109.727 170.67 109.815C168.457 110.039 166.217 110.056 164.006 109.838C162.887 109.535 163.323 107.77 163.189 106.842C163.197 93.8801 163.202 80.9183 163.195 67.9545C159.106 67.8904 155.016 68.0583 150.931 67.9192C150.131 67.8815 149.371 66.9737 149.624 65.9662C149.541 63.7877 149.515 61.5962 149.699 59.4245ZM541.577 58.5761C543.67 58.1983 545.842 58.3442 547.949 58.6226C548.784 58.8369 548.94 60.0386 548.84 60.8695C548.881 67.1304 548.788 73.3959 548.835 79.659C555.12 79.6658 561.406 79.6701 567.695 79.6568C567.805 72.9893 567.493 66.3109 567.812 59.6521C567.998 58.342 569.499 58.4303 570.331 58.3906C572.175 58.5408 574.363 57.94 576 59.25V109.5C573.548 110.083 571.008 110.153 568.537 109.802C567.761 109.661 567.646 108.43 567.712 107.73C567.613 101.469 567.749 95.2057 567.695 88.9424C561.406 88.9358 555.12 88.9336 548.835 88.9424C548.794 94.9824 548.869 101.025 548.845 107.067C548.661 107.911 549.138 109.449 548.15 109.78C546.193 110.131 544.19 110.017 542.228 109.91C541.726 109.778 541.109 109.966 540.786 109.413C540.421 108.722 540.536 107.82 540.497 107.065C540.565 91.9624 540.511 76.8579 540.523 61.7553C540.56 60.6816 540.328 58.8434 541.577 58.5761Z" fill="#0F6BBB"/>
</svg>
