<svg width="127" height="24" viewBox="0 0 127 24" fill="none" xmlns="http://www.w3.org/2000/svg">
<g id="Frame" clip-path="url(#clip0_5075_81784)">
<g id="Clip path group">
<mask id="mask0_5075_81784" style="mask-type:luminance" maskUnits="userSpaceOnUse" x="0" y="0" width="127" height="24">
<g id="a">
<path id="Vector" d="M0 0H126.922V23.5962H0V0Z" fill="white"/>
</g>
</mask>
<g mask="url(#mask0_5075_81784)">
<g id="Group">
<path id="Vector_2" d="M0.0390625 0.0368591H8.24162V2.37026H2.56205V6.3878H7.62646V8.7198H2.56205V14.2392H0.0390625V0.0368591ZM15.0027 2.57359H17.3612V5.11032H20.3378L19.5313 7.30069H17.3612V10.6269C17.3612 11.6225 17.6887 12.2718 18.4682 12.2718C18.9877 12.2601 19.4877 12.0737 19.8856 11.7431L20.6043 13.5493C19.8192 14.1385 18.8583 14.4527 17.8729 14.4425C15.7822 14.4425 15.0027 13.1033 15.0027 10.7699V2.57359ZM26.539 4.88595C29.5949 4.88595 31.5637 6.93469 31.5637 9.67335C31.5637 12.412 29.5949 14.4621 26.539 14.4621C23.483 14.4621 21.5157 12.4134 21.5157 9.67475C21.5157 6.93609 23.4845 4.88736 26.539 4.88736M26.539 12.2928C27.9961 12.2914 29.0591 11.2565 29.0591 9.67475C29.0591 8.13224 27.972 7.07913 26.5361 7.07913C25.1414 7.07913 24.0344 8.09298 24.0344 9.67475C24.0344 11.1976 25.1017 12.2928 26.5361 12.2928M47.4231 14.2322H45.0659V8.87545C45.0659 7.7396 44.5939 7.13101 43.4869 7.13101C42.6053 7.13101 41.9065 7.55169 41.5805 8.18693C41.5805 8.32716 41.6004 8.65249 41.6004 8.85582V14.2322H39.2418V8.71419C39.2418 7.76063 38.7089 7.13101 37.7039 7.13101C37.3257 7.11887 36.9505 7.20176 36.6134 7.37195C36.2763 7.54213 35.9883 7.79405 35.7762 8.10419V14.2322H33.4177V5.10191H35.7762V6.11716C36.4325 5.38657 37.5197 4.94064 38.6678 4.94064C40.0852 4.94064 41.0263 5.56887 41.3537 6.40182C42.01 5.54923 43.0362 4.94064 44.472 4.94064C46.1531 4.94064 47.4245 5.7722 47.4245 8.26686L47.4231 14.2322ZM56.3471 13.5016C55.6508 14.1244 54.7429 14.4648 53.8043 14.4551C51.0347 14.4551 49.2686 12.5284 49.2686 9.66774C49.2686 7.0034 51.4429 4.87894 54.5598 4.87894C56.1388 4.87894 57.7178 5.36554 58.7014 5.97413V14.2322H56.3471V13.5016ZM56.3471 11.3308V7.51664C55.7872 7.23429 55.1697 7.08179 54.5413 7.07071C52.737 7.07071 51.793 8.33277 51.793 9.7687C51.793 11.3715 52.7993 12.2844 54.2338 12.2844C54.6323 12.2717 55.0243 12.1809 55.387 12.0172C55.7498 11.8535 56.0761 11.6202 56.3471 11.3308ZM61.1692 5.10191H63.5277V5.99516C63.9529 5.4062 64.5327 4.94064 65.6397 4.94064C66.3994 4.94064 66.7736 5.06124 67.0755 5.2856L66.2633 7.4928C65.8112 7.22917 65.5376 7.13101 65.0458 7.13101C64.2251 7.13101 63.7942 7.57834 63.5277 8.10419V14.2322H61.1692V5.10191ZM68.4206 0.03125H70.7792V14.2322H68.4206V0.03125ZM73.5063 9.26108L75.0442 11.0672C75.5771 11.7361 76.3964 12.3293 77.1972 12.0614V14.2322C75.6182 14.6374 74.1214 14.0092 73.0754 12.4667L70.8189 9.46441L74.2646 5.10191H77.0739L73.5063 9.26108ZM86.7477 13.3207C85.825 14.0919 84.5125 14.4565 83.2212 14.4565C80.2447 14.4565 78.2603 12.5494 78.2603 9.66914C78.2603 7.0048 80.1029 4.88035 83.1418 4.88035C85.5203 4.88035 87.5103 6.56309 87.5103 9.12085C87.5277 9.5462 87.4799 9.9717 87.3686 10.3829H80.7067C80.9123 11.7628 82.0207 12.513 83.4749 12.513C84.6089 12.513 85.5472 12.1077 86.0801 11.6814L86.7477 13.3207ZM80.6203 8.81515H85.156C85.1758 7.69333 84.3963 6.82671 83.044 6.82671C81.6266 6.82671 80.8697 7.619 80.6245 8.81515" fill="#29004E"/>
<path id="Vector_3" d="M98.0011 11.2135C98.8827 11.2135 99.4979 12.0058 99.4979 12.7154C99.4979 13.5469 98.8827 14.3378 98.0011 14.3378C97.7844 14.3425 97.5689 14.3038 97.3677 14.224C97.1664 14.1442 96.9836 14.0249 96.8302 13.8734C96.6768 13.7218 96.556 13.5411 96.4751 13.342C96.3943 13.143 96.355 12.9298 96.3598 12.7154C96.3768 12.3011 96.5591 11.9104 96.8667 11.6289C97.1744 11.3474 97.5823 11.198 98.0011 11.2135ZM101.638 5.10657H103.995V5.99983C104.421 5.41087 105.002 4.94531 106.109 4.94531C106.868 4.94531 107.243 5.06591 107.545 5.29027L106.731 7.49747C106.28 7.23524 106.007 7.13568 105.513 7.13568C104.693 7.13568 104.263 7.58301 103.995 8.10886V14.2368H101.638V5.10657ZM117.274 14.2368H114.916V13.115C114.558 13.5445 114.107 13.888 113.595 14.1197C113.083 14.3514 112.525 14.4653 111.963 14.4528C110.158 14.4528 108.722 13.2959 108.722 10.6792V5.10657H111.081V10.1997C111.081 11.4168 111.553 12.2891 112.844 12.2891C113.624 12.2891 114.384 11.8684 114.916 11.1672V5.10657H117.274V14.2368Z" fill="#3ADE3A"/>
<path id="Vector_4" d="M92.632 12.2651C91.8525 12.2651 91.525 11.6172 91.525 10.6216V7.29256H93.6908L94.4959 5.10079H91.5194V2.56827H89.1665V10.7646C89.1665 13.098 89.9446 14.4372 92.0367 14.4372C93.0211 14.4465 93.9808 14.1323 94.7652 13.5439L94.0466 11.7378C93.6485 12.0678 93.1485 12.2538 92.6292 12.2651M12.6036 14.2675H10.238V5.11201H12.6036V14.2675ZM9.99133 1.81524C9.98594 1.6309 10.0212 1.4476 10.0946 1.27809C10.1681 1.10858 10.2779 0.95692 10.4166 0.833642C10.7083 0.579725 11.087 0.445338 11.4754 0.45783C11.652 0.455443 11.8274 0.488227 11.9911 0.554233C12.1547 0.620239 12.3032 0.718119 12.4279 0.842056C12.5604 0.968829 12.6645 1.12169 12.7336 1.29077C12.8027 1.45985 12.8352 1.64138 12.829 1.82365C12.8373 2.01751 12.8061 2.21105 12.7372 2.39271C12.6683 2.57437 12.5631 2.74043 12.4279 2.88098C12.306 3.01128 12.1579 3.11491 11.9931 3.18519C11.8284 3.25547 11.6505 3.29085 11.4711 3.28904C11.276 3.29481 11.0817 3.26166 10.8997 3.19155C10.7178 3.12144 10.5521 3.01582 10.4123 2.88098C10.2708 2.74228 10.1602 2.57579 10.0877 2.39223C10.0152 2.20867 9.98236 2.01212 9.99133 1.81524ZM0.557042 23.5324H0V18.9988H0.566964L2.28912 21.3238L3.93898 18.9988H4.46484V23.5324H3.9078V19.8668L2.28487 22.1203H2.19982L0.557042 19.8865V23.5324ZM7.35069 23.5324H6.78373L8.75393 18.9736H9.2316L11.2018 23.5324H10.6065L10.0225 22.1568H7.9375L7.35069 23.5324ZM9.80565 21.6407L8.98071 19.7042L8.15578 21.6407H9.80565ZM14.0862 21.7908V23.5324H13.5306V18.9988H14.7283C15.3312 18.9988 15.763 19.1325 16.0238 19.3999C16.2861 19.6728 16.4297 20.0367 16.4236 20.4133C16.4175 20.7899 16.2622 21.1491 15.9912 21.4135C15.7077 21.694 15.3019 21.8342 14.7737 21.8342C14.4944 21.816 14.2662 21.8076 14.0862 21.7908ZM14.7808 19.5036C14.7028 19.5036 14.4703 19.5036 14.0862 19.5177V21.2649C14.3612 21.2873 14.5837 21.2986 14.7538 21.2986C15.0391 21.3151 15.3208 21.2284 15.5462 21.0546C15.6417 20.9714 15.7169 20.8679 15.766 20.7517C15.8151 20.6356 15.8369 20.51 15.8296 20.3843C15.8368 20.2632 15.8168 20.142 15.771 20.0295C15.7251 19.917 15.6546 19.8159 15.5646 19.7336C15.34 19.5658 15.0615 19.4841 14.7808 19.5036ZM19.5333 23.5324H18.9763V18.9988H19.5333V23.5324ZM21.6595 18.9988H22.3341L20.2917 21.1289L22.439 23.5324H21.7303L19.6439 21.1752L21.6595 18.9988ZM27.4411 23.5324H24.7891V18.9988H27.3745V19.5177H25.3461V20.9802H27.1789V21.4991H25.3461V23.0136H27.4411V23.5324ZM31.0739 19.5177H29.4694V18.9988H33.234V19.5177H31.6295V23.5324H31.0739V19.5177ZM39.1205 23.5324H38.5677V19.5177H36.0816V23.5324H35.5246V18.9988H39.1205V23.5324ZM45.4153 23.5324H44.8596V19.5177H43.197L43.1176 20.3717C43.0759 20.8554 43.0082 21.3366 42.9149 21.8132C42.8539 22.1345 42.7642 22.4498 42.6471 22.7555C42.5714 22.9527 42.4567 23.1329 42.3097 23.2856C42.2073 23.3954 42.0771 23.4762 41.9327 23.5198C41.7953 23.5499 41.6535 23.5542 41.5145 23.5324V22.9813C41.5941 22.9963 41.6761 22.9885 41.7512 22.9589C41.8398 22.9107 41.9159 22.8431 41.9738 22.7611C42.0849 22.6152 42.1688 22.4509 42.2218 22.276C42.3957 21.7926 42.5223 21.0027 42.6017 19.9061L42.6669 18.9988H45.4096L45.4153 23.5324ZM50.98 23.5324H48.3337V18.9988H50.9134V19.5177H48.8851V20.9802H50.7178V21.4991H48.8851V23.0136H50.98V23.5324ZM56.9034 19.9131L54.121 23.5394H53.6306V18.9988H54.1876V22.6251L56.9686 18.9988H57.4604V23.5324H56.9034V19.9131ZM54.3634 17.9695H54.8878C54.9927 18.25 55.2252 18.3902 55.588 18.3902C55.9509 18.3902 56.1961 18.25 56.2627 17.9695H56.7857C56.7703 18.0894 56.728 18.2042 56.6617 18.3057C56.5955 18.4071 56.5071 18.4926 56.403 18.5557C56.1602 18.7095 55.8762 18.7872 55.588 18.7787C55.2936 18.7903 55.0026 18.7135 54.7532 18.5585C54.6482 18.4933 54.559 18.4061 54.4916 18.3032C54.4243 18.2002 54.3805 18.084 54.3634 17.9625V17.9695ZM63.5609 22.677L63.7835 23.0977C63.6078 23.2667 63.3947 23.3929 63.1612 23.4665C62.8963 23.5594 62.6174 23.6068 62.3363 23.6067C62.0271 23.6181 61.7188 23.5677 61.4297 23.4586C61.1406 23.3494 60.8768 23.1838 60.6538 22.9715C60.2277 22.5405 60.0141 21.9749 60.0132 21.2747C59.9903 20.6621 60.2111 20.065 60.6283 19.6116C61.0375 19.1676 61.5941 18.9451 62.298 18.9441C62.8782 18.9441 63.3427 19.0909 63.6913 19.3844L63.4362 19.8051C63.1061 19.5721 62.7076 19.4533 62.3023 19.4672C62.0736 19.4599 61.8461 19.5014 61.635 19.5887C61.424 19.6761 61.2344 19.8073 61.0791 19.9734C60.7722 20.3399 60.6052 20.8015 60.6072 21.2775C60.6093 21.7534 60.7803 22.2135 61.0904 22.5774C61.2606 22.7436 61.4633 22.8736 61.6861 22.9594C61.9088 23.0452 62.147 23.0851 62.3859 23.0767C62.8129 23.0844 63.229 22.9429 63.5609 22.677ZM68.8564 21.2649C68.8488 20.959 68.9034 20.6546 69.0168 20.3699C69.1303 20.0852 69.3003 19.8259 69.5169 19.6074C69.9648 19.1789 70.5624 18.9377 71.1855 18.9341C71.8085 18.9304 72.409 19.1646 72.862 19.5878C73.0843 19.8077 73.2583 20.0707 73.3732 20.3602C73.4881 20.6498 73.5413 20.9597 73.5296 21.2705C73.5379 21.5793 73.4831 21.8865 73.3684 22.1737C73.2536 22.461 73.0814 22.7223 72.862 22.942C72.6441 23.1588 72.3837 23.3291 72.0968 23.4427C71.8099 23.5563 71.5026 23.6107 71.1937 23.6025C70.8824 23.6122 70.5725 23.5583 70.2831 23.4443C69.9938 23.3303 69.7314 23.1585 69.5121 22.9397C69.2928 22.721 69.1214 22.4598 69.0086 22.1727C68.8958 21.8855 68.844 21.5784 68.8564 21.2705V21.2649ZM69.446 21.2649C69.4345 21.7456 69.6153 22.2113 69.9492 22.5606C70.1084 22.7285 70.3014 22.8614 70.5158 22.9508C70.7301 23.0402 70.9611 23.084 71.1937 23.0795C71.4284 23.0875 71.6622 23.0453 71.8789 22.9558C72.0956 22.8662 72.2903 22.7314 72.4495 22.5606C72.7793 22.2095 72.956 21.744 72.9414 21.2649C72.9484 21.0268 72.9075 20.7897 72.8208 20.5675C72.7342 20.3452 72.6036 20.1423 72.4368 19.9706C72.2738 19.8074 72.0797 19.6778 71.8657 19.5893C71.6517 19.5008 71.4221 19.4552 71.1902 19.4551C70.9582 19.4551 70.7286 19.5007 70.5146 19.5892C70.3006 19.6777 70.1065 19.8073 69.9435 19.9706C69.7797 20.1438 69.6521 20.3473 69.5679 20.5694C69.4837 20.7915 69.4447 21.0279 69.4531 21.2649H69.446ZM76.8492 19.5177H75.2447V18.9988H79.0093V19.5177H77.4048V23.5324H76.8492V19.5177ZM87.1594 21.4795H84.8916V20.9606H87.1594C87.1408 20.7477 87.0797 20.5406 86.9797 20.3512C86.8797 20.1618 86.7428 19.9938 86.5769 19.857C86.2139 19.5762 85.7616 19.4325 85.3012 19.4518C84.8837 19.4399 84.4747 19.5706 84.1432 19.822L83.9263 19.4013C84.2844 19.0881 84.7857 18.9315 85.4302 18.9315C85.7363 18.9196 86.0417 18.9697 86.3276 19.0787C86.6135 19.1877 86.8739 19.3533 87.0928 19.5653C87.5171 19.9851 87.7287 20.546 87.7278 21.2481C87.7405 21.5588 87.6904 21.869 87.5803 22.1604C87.4703 22.4517 87.3027 22.7184 87.0871 22.9448C86.6628 23.3767 86.093 23.5927 85.3777 23.5927C84.8293 23.6153 84.29 23.4482 83.8526 23.1201L84.095 22.6602C84.4606 22.9377 84.9098 23.0858 85.3706 23.0809C85.8186 23.0951 86.2556 22.9425 86.5953 22.6532C86.9328 22.3511 87.1357 21.9291 87.1594 21.4795ZM90.2806 23.5254V19.0058C90.8872 18.9881 91.3063 18.9792 91.5378 18.9792C92.0358 18.9792 92.4057 19.0773 92.6476 19.2737C92.7687 19.3741 92.8645 19.501 92.9275 19.6443C92.9904 19.7877 93.0189 19.9435 93.0105 20.0996C93.0191 20.337 92.945 20.5702 92.8007 20.7601C92.6527 20.9439 92.4522 21.0792 92.2252 21.1485V21.1625C92.4917 21.1951 92.7383 21.3186 92.9226 21.5117C93.0961 21.7133 93.1862 21.9722 93.1749 22.2367C93.1868 22.4237 93.1524 22.6109 93.0749 22.7819C92.9974 22.9529 92.8789 23.1027 92.7298 23.2183C92.4322 23.4408 92.0263 23.552 91.5123 23.552C91.0091 23.559 90.5995 23.5422 90.2806 23.5254ZM91.525 19.4924C91.3932 19.4924 91.165 19.4924 90.8376 19.5121V20.9746H91.5647C91.7942 20.9841 92.0194 20.912 92.1997 20.7713C92.2816 20.7042 92.3467 20.6193 92.3899 20.5232C92.4333 20.4272 92.4536 20.3225 92.4492 20.2174C92.453 19.7341 92.1449 19.4924 91.525 19.4924ZM91.5775 21.4556H90.8376V22.9981C91.0162 23.015 91.2515 23.0234 91.5463 23.0234C91.8275 23.0411 92.1067 22.9672 92.3415 22.813C92.4359 22.7404 92.5111 22.6462 92.5605 22.5385C92.6098 22.4307 92.632 22.3127 92.6249 22.1946C92.63 22.0881 92.6076 21.9821 92.5601 21.8865C92.5125 21.7909 92.4412 21.7087 92.3528 21.6477C92.1198 21.5089 91.8487 21.4457 91.5775 21.4668V21.4556ZM95.8326 23.5324H95.2656L97.2344 18.9736H97.712L99.6822 23.5324H99.0912L98.51 22.1568H96.4151L95.8326 23.5324ZM98.2861 21.6407L97.4626 19.7042L96.6376 21.6407H98.2861ZM105.314 23.5324H104.757V19.5177H103.091L103.013 20.3717C102.971 20.8554 102.904 21.3366 102.81 21.8132C102.75 22.1347 102.66 22.4501 102.541 22.7555C102.466 22.9528 102.351 23.1331 102.204 23.2856C102.102 23.3952 101.972 23.476 101.828 23.5198C101.689 23.5505 101.544 23.5548 101.403 23.5324V22.9813C101.482 22.996 101.564 22.9882 101.638 22.9589C101.727 22.9109 101.803 22.8432 101.861 22.7611C101.972 22.6153 102.057 22.451 102.11 22.276C102.285 21.7926 102.412 21.0027 102.49 19.9061L102.555 18.9988H105.314V23.5324ZM108.197 23.5324H107.63L109.6 18.9736H110.078L112.049 23.5324H111.452L110.868 22.1568H108.779L108.197 23.5324ZM110.652 21.6407L109.827 19.7042L108.999 21.6407H110.652ZM114.932 21.7908V23.5324H114.377V18.9988H115.574C116.177 18.9988 116.609 19.1325 116.87 19.3999C117.132 19.6728 117.276 20.0367 117.27 20.4133C117.263 20.7899 117.108 21.1491 116.837 21.4135C116.554 21.694 116.148 21.8342 115.62 21.8342C115.34 21.816 115.112 21.8076 114.932 21.7908ZM115.627 19.5036C115.549 19.5036 115.316 19.5036 114.932 19.5177V21.2649C115.207 21.2873 115.43 21.2986 115.601 21.2986C115.886 21.3148 116.167 21.2281 116.392 21.0546C116.481 20.9695 116.553 20.8678 116.603 20.7553C116.652 20.6428 116.679 20.5217 116.681 20.399C116.683 20.2763 116.661 20.1544 116.616 20.0402C116.57 19.926 116.502 19.8218 116.416 19.7336C116.19 19.5651 115.909 19.4834 115.627 19.5036Z" fill="#29004E"/>
<path id="Vector_5" d="M120.35 6.50519C122.093 6.50445 123.765 5.81875 124.997 4.59887C126.23 3.37899 126.922 1.7248 126.922 0C125.179 0.000743608 123.507 0.686438 122.274 1.90632C121.042 3.1262 120.35 4.78039 120.35 6.50519Z" fill="#3ADE3A"/>
</g>
</g>
</g>
</g>
<defs>
<clipPath id="clip0_5075_81784">
<rect width="127" height="24" fill="white"/>
</clipPath>
</defs>
</svg>
