<svg width="736" height="216" viewBox="0 0 736 216" fill="none" xmlns="http://www.w3.org/2000/svg">
<path d="M1.9811 196.761C41.319 195.779 82.6914 189.999 120.801 183.528C131.198 181.763 141.724 179.96 152.268 178.006M152.268 178.006C201.496 168.881 251.137 156.446 290.028 129.035C302.248 120.422 320.271 102.408 323.956 88.4469C328.162 72.5147 302.601 79.4285 294.309 82.2626C270.561 90.3801 249.149 103.737 229.407 117.064C205.269 133.359 171.572 154.076 152.268 178.006ZM152.268 178.006C147.837 183.498 144.165 189.16 141.541 194.976C135.074 209.307 149.201 214.582 163.933 213.346C189.836 211.172 216.357 201.499 239.26 192.805C280.965 176.974 313.39 161.565 352.391 141.319C367.286 133.588 392.211 119.281 415.755 105.114M415.755 105.114C456.654 80.5027 493.387 56.3091 466.136 67.7199C453.881 72.8514 431.341 88.0583 415.755 105.114ZM415.755 105.114C400.98 121.282 392.456 139.111 404.868 151.594C422.166 168.988 462.757 160.888 482.874 156.553C548.683 142.374 611.366 112.61 664.63 78.1326C679.476 68.5231 749.718 25.5459 730.751 1.87189" stroke="white" stroke-width="3" stroke-linecap="round"/>
<path d="M1.9811 196.761C41.319 195.779 82.6914 189.999 120.801 183.528C131.198 181.763 141.724 179.96 152.268 178.006M152.268 178.006C201.496 168.881 251.137 156.446 290.028 129.035C302.248 120.422 320.271 102.408 323.956 88.4469C328.162 72.5147 302.601 79.4285 294.309 82.2626C270.561 90.3801 249.149 103.737 229.407 117.064C205.269 133.359 171.572 154.076 152.268 178.006ZM152.268 178.006C147.837 183.498 144.165 189.16 141.541 194.976C135.074 209.307 149.201 214.582 163.933 213.346C189.836 211.172 216.357 201.499 239.26 192.805C280.965 176.974 313.39 161.565 352.391 141.319C367.286 133.588 392.211 119.281 415.755 105.114M415.755 105.114C456.654 80.5027 493.387 56.3091 466.136 67.7199C453.881 72.8514 431.341 88.0583 415.755 105.114ZM415.755 105.114C400.98 121.282 392.456 139.111 404.868 151.594C422.166 168.988 462.757 160.888 482.874 156.553C548.683 142.374 611.366 112.61 664.63 78.1326C679.476 68.5231 749.718 25.5459 730.751 1.87189" stroke="url(#paint0_radial_5733_38827)" stroke-opacity="0.79" stroke-width="3" stroke-linecap="round"/>
<defs>
<radialGradient id="paint0_radial_5733_38827" cx="0" cy="0" r="1" gradientUnits="userSpaceOnUse" gradientTransform="translate(149.738 165.692) rotate(-12.9984) scale(386.011 1601.62)">
<stop stop-color="#F69DBE"/>
<stop offset="1" stop-color="#F69DBE" stop-opacity="0"/>
</radialGradient>
</defs>
</svg>
