<svg width="158" height="118" viewBox="0 0 158 118" fill="none" xmlns="http://www.w3.org/2000/svg">
<path d="M143.757 97.2642C137.732 96.6541 131.728 99.0243 127.749 103.585C128.357 97.5629 125.983 91.5606 121.419 87.5799C127.445 88.1902 133.448 85.8201 137.428 81.2599C136.819 87.2815 139.193 93.2837 143.757 97.2642ZM125.149 109.582C125.362 109.674 125.603 109.678 125.819 109.592C126.035 109.507 126.208 109.34 126.301 109.127C130.019 100.55 140.025 96.6008 148.606 100.321C148.819 100.413 149.06 100.417 149.276 100.332C149.492 100.247 149.666 100.079 149.758 99.8661C149.85 99.653 149.854 99.412 149.769 99.196C149.683 98.98 149.516 98.8067 149.303 98.7142C140.722 94.994 136.765 84.991 140.483 76.4145C140.575 76.2015 140.579 75.9605 140.494 75.7446C140.408 75.5286 140.241 75.3553 140.028 75.2627C139.815 75.1704 139.573 75.1665 139.357 75.2518C139.141 75.3371 138.968 75.5046 138.876 75.7176C135.157 84.2941 125.151 88.2435 116.569 84.523C116.358 84.438 116.121 84.439 115.91 84.5257C115.699 84.6125 115.53 84.7781 115.439 84.9874C115.349 85.1967 115.343 85.4331 115.424 85.6465C115.505 85.8598 115.666 86.0332 115.873 86.1298C124.455 89.8504 128.412 99.8533 124.693 108.43C124.601 108.643 124.597 108.884 124.683 109.1C124.768 109.316 124.936 109.489 125.149 109.582Z" fill="white"/>
<path d="M113.977 11.1221C119.589 10.4198 124.214 6.28164 125.529 0.782457C125.584 0.557505 125.939 0.577079 125.969 0.806669C126.671 6.41702 130.812 11.0381 136.315 12.3529C136.54 12.4075 136.52 12.7625 136.29 12.7921C130.677 13.4936 126.053 17.6317 124.739 23.131C124.684 23.3559 124.329 23.3363 124.299 23.1068C123.596 17.4964 119.454 12.8753 113.952 11.5613C113.727 11.5067 113.747 11.1517 113.977 11.1221Z" fill="white"/>
<path d="M2.1363 73.9273C4.92913 72.3641 6.47232 69.2104 5.99106 66.0477C5.9718 65.9182 6.1622 65.8528 6.22658 65.9669C7.78912 68.7583 10.9436 70.2991 14.1081 69.8169C14.2377 69.7976 14.303 69.9879 14.1889 70.0523C11.3955 71.6151 9.8527 74.7687 10.3344 77.9313C10.3537 78.0608 10.1633 78.1262 10.0989 78.0121C8.5359 75.2208 5.38095 73.6801 2.21711 74.1626C2.08749 74.1819 2.02216 73.9916 2.1363 73.9273Z" fill="white"/>
<rect x="21.8466" y="5.48047" width="92" height="92" rx="46" fill="white"/>
<path d="M52.6081 51.4802C59.8314 53.7808 65.5465 59.4959 67.8459 66.7193C70.1457 59.4959 75.8608 53.7808 83.085 51.4802C75.8608 49.1795 70.1457 43.4644 67.8459 36.2411C65.5465 43.4644 59.8314 49.1795 52.6081 51.4802ZM67.8459 74.9062C67.5552 74.906 67.2764 74.7904 67.0708 74.5849C66.8653 74.3793 66.7497 74.1005 66.7495 73.8098C66.7495 62.101 57.2242 52.577 45.5166 52.577C45.2258 52.5769 44.9469 52.4613 44.7412 52.2556C44.5355 52.05 44.4199 51.771 44.4198 51.4802C44.4199 51.1893 44.5355 50.9104 44.7412 50.7047C44.9469 50.499 45.2258 50.3834 45.5166 50.3833C57.2242 50.3833 66.7495 40.8593 66.7495 29.1505C66.7497 28.8597 66.8653 28.5809 67.0708 28.3753C67.2764 28.1697 67.5551 28.054 67.8459 28.0537C68.1367 28.0539 68.4156 28.1695 68.6212 28.3752C68.8269 28.5808 68.9425 28.8597 68.9427 29.1505C68.9427 40.8593 78.468 50.3833 90.1768 50.3833C90.4624 50.3913 90.7337 50.5103 90.9329 50.7151C91.1322 50.92 91.2436 51.1944 91.2436 51.4802C91.2436 51.7659 91.1322 52.0404 90.9329 52.2452C90.7337 52.45 90.4624 52.5691 90.1768 52.577C78.468 52.577 68.9427 62.101 68.9427 73.8098C68.9425 74.1006 68.8269 74.3794 68.6212 74.585C68.4155 74.7906 68.1367 74.9061 67.8459 74.9062Z" fill="#009BCB"/>
<path d="M65.6186 51.481C66.5161 52.0507 67.2768 52.8114 67.8466 53.7089C68.4162 52.8115 69.1768 52.0507 70.0741 51.481C69.1748 50.9137 68.4137 50.1524 67.8466 49.253C67.2793 50.1525 66.5181 50.9137 65.6186 51.481ZM67.8466 58.6016C67.5558 58.6013 67.2769 58.4857 67.0712 58.2801C66.8656 58.0744 66.75 57.7956 66.7497 57.5047C66.7497 54.7884 64.5413 52.5778 61.8262 52.5778C61.5353 52.5777 61.2564 52.4621 61.0508 52.2564C60.8451 52.0508 60.7295 51.7718 60.7294 51.481C60.7295 51.1901 60.8451 50.9112 61.0508 50.7055C61.2564 50.4998 61.5353 50.3842 61.8262 50.3841C64.5413 50.3841 66.7497 48.1778 66.7497 45.4614C66.7577 45.1758 66.8767 44.9045 67.0815 44.7053C67.2864 44.5061 67.5608 44.3946 67.8466 44.3946C68.1323 44.3946 68.4068 44.5061 68.6116 44.7053C68.8165 44.9045 68.9355 45.1758 68.9434 45.4614C68.9434 48.1778 71.1519 50.3841 73.867 50.3841C74.1578 50.3842 74.4367 50.4998 74.6424 50.7055C74.8481 50.9112 74.9637 51.1901 74.9638 51.481C74.9637 51.7718 74.8481 52.0508 74.6424 52.2564C74.4367 52.4621 74.1578 52.5777 73.867 52.5778C71.1519 52.5778 68.9434 54.7884 68.9434 57.5047C68.9431 57.7955 68.8274 58.0743 68.6218 58.2799C68.4162 58.4856 68.1374 58.6012 67.8466 58.6016Z" fill="#009BCB"/>
<path d="M86.7807 37.2146C83.877 36.6873 81.587 34.3977 81.0597 31.4936C81.0377 31.3748 80.8521 31.3748 80.8301 31.4936C80.3032 34.3977 78.0136 36.6873 75.1095 37.2146C74.9907 37.2366 74.9907 37.4222 75.1095 37.4442C78.0136 37.9711 80.3032 40.2607 80.8301 43.1648C80.8521 43.2836 81.0377 43.2836 81.0597 43.1648C81.587 40.2607 83.877 37.9711 86.7807 37.4442C86.8995 37.4222 86.8995 37.2366 86.7807 37.2146Z" fill="#009BCB"/>
</svg>
