<svg width="139" height="102" viewBox="0 0 139 102" fill="none" xmlns="http://www.w3.org/2000/svg">
<rect x="6.99802" y="10" width="92" height="92" rx="46" fill="white"/>
<path d="M61.3699 52.5023C61.3699 49.866 59.2326 47.7287 56.5963 47.7287C55.2916 47.7287 53.607 48.7228 52.9981 50.2353C52.3884 48.7228 50.7047 47.7287 49.3995 47.7287C46.7628 47.7287 44.6259 49.866 44.6259 52.5023C44.6259 56.4658 50.6442 64.2715 50.6442 64.2715L52.9981 60.6618L55.3512 64.2715C55.3512 64.2715 61.3699 56.4658 61.3699 52.5023Z" fill="#009BCB"/>
<path d="M42.5895 47.2109L35.2021 39.8258L36.8201 38.2074L44.2079 45.5925L42.5895 47.2109Z" fill="#009BCB"/>
<path d="M69.1755 73.7969L61.7881 66.4117L63.406 64.7933L70.7939 72.1785L69.1755 73.7969Z" fill="#009BCB"/>
<path d="M39.4107 55.0078L29.0927 53.3762L29.4506 51.114L39.7686 52.7457L39.4107 55.0078Z" fill="#009BCB"/>
<path d="M76.5465 60.8906L66.2285 59.2546L66.5863 56.9924L76.9043 58.6285L76.5465 60.8906Z" fill="#009BCB"/>
<path d="M32.1127 67.9277L31.0732 65.8893L40.3821 61.1461L41.4216 63.1846L32.1127 67.9277Z" fill="#009BCB"/>
<path d="M65.6137 50.8594L64.5742 48.8209L73.8831 44.0778L74.9227 46.1162L65.6137 50.8594Z" fill="#009BCB"/>
<path d="M43.1107 77.9238L41.0722 76.8865L45.8154 67.5789L47.8538 68.6162L43.1107 77.9238Z" fill="#009BCB"/>
<path d="M60.18 44.4258L58.1416 43.3885L62.8834 34.0765L64.9223 35.1138L60.18 44.4258Z" fill="#009BCB"/>
<path d="M55.6264 79.9082L53.9912 69.5902L56.2512 69.2328L57.8863 79.5504L55.6264 79.9082Z" fill="#009BCB"/>
<path d="M49.7442 42.7715L48.1103 32.4535L50.3698 32.0961L52.0041 42.4137L49.7442 42.7715Z" fill="#009BCB"/>
<path d="M2.2171 11.7029C5.74661 9.97528 7.85156 6.21317 7.47521 2.30328C7.46034 2.14316 7.69819 2.07588 7.7694 2.22006C9.49646 5.74786 13.2597 7.84996 17.1718 7.47254C17.332 7.45763 17.3992 7.69534 17.2549 7.76656C13.7247 9.49384 11.6203 13.2558 11.9972 17.1655C12.0121 17.3257 11.7742 17.3929 11.703 17.2488C9.97542 13.7211 6.21164 11.6192 2.30028 11.997C2.14007 12.0119 2.07282 11.7742 2.2171 11.7029Z" fill="white"/>
<path d="M106.47 74.2695C113.527 75.6074 120.728 72.4078 124.46 66.2742C124.614 66.0236 125.035 66.1857 124.982 66.4747C123.645 73.5286 126.849 80.7266 132.987 84.4593C133.238 84.613 133.076 85.0345 132.787 84.9807C125.729 83.6415 118.529 86.8414 114.798 92.9754C114.644 93.226 114.223 93.0639 114.276 92.7749C115.612 85.7206 112.407 78.5222 106.27 74.7909C106.019 74.6372 106.181 74.2157 106.47 74.2695Z" fill="white"/>
</svg>
