<svg width="64" height="64" viewBox="0 0 64 64" fill="none" xmlns="http://www.w3.org/2000/svg">
<circle cx="32" cy="32" r="28.5" stroke="#005585" stroke-opacity="0.1" stroke-width="7"/>
<path fill-rule="evenodd" clip-rule="evenodd" d="M32 57C35.283 57 38.5339 56.3534 41.5671 55.097C44.6002 53.8406 47.3562 51.9991 49.6777 49.6777C51.9991 47.3562 53.8406 44.6002 55.097 41.5671C56.3534 38.5339 57 35.283 57 32C57 28.717 56.3534 25.4661 55.097 22.4329C53.8406 19.3998 51.9991 16.6438 49.6777 14.3223C47.3562 12.0009 44.6002 10.1594 41.5671 8.90301C38.5339 7.64664 35.283 7 32 7C25.3696 7 19.0107 9.63392 14.3223 14.3223C9.63392 19.0107 7 25.3696 7 32C7 38.6304 9.63392 44.9893 14.3223 49.6777C19.0107 54.3661 25.3696 57 32 57ZM31.3556 42.1111L45.2444 25.4444L40.9778 21.8889L29.0333 36.2194L22.8528 30.0361L18.925 33.9639L27.2583 42.2972L29.4083 44.4472L31.3556 42.1111Z" fill="#005585"/>
</svg>
