<svg width="994" height="68" viewBox="0 0 994 68" fill="none" xmlns="http://www.w3.org/2000/svg">
<path d="M15.3221 51V9.49H0.517149V0.599998H39.7171V9.49H24.9121V51H15.3221ZM59.0399 43.3C60.9999 43.3 62.6099 42.915 63.8699 42.145C65.1299 41.375 66.1332 40.1733 66.8799 38.54L76.3999 41.13C75.6766 42.8567 74.7432 44.3967 73.5999 45.75C72.4799 47.1033 71.1732 48.2467 69.6799 49.18C68.2099 50.1133 66.5766 50.825 64.7799 51.315C62.9832 51.805 61.0699 52.05 59.0399 52.05C56.1932 52.05 53.5915 51.56 51.2349 50.58C48.9015 49.6 46.8949 48.235 45.2149 46.485C43.5349 44.7117 42.2282 42.6 41.2949 40.15C40.3849 37.7 39.9299 35.0167 39.9299 32.1C39.9299 29.1367 40.3965 26.43 41.3299 23.98C42.2865 21.53 43.6049 19.43 45.2849 17.68C46.9649 15.93 48.9716 14.5767 51.3049 13.62C53.6616 12.64 56.2399 12.15 59.0399 12.15C62.0966 12.15 64.7916 12.6867 67.1249 13.76C69.4582 14.8333 71.3832 16.35 72.8999 18.31C74.4166 20.27 75.5015 22.65 76.1549 25.45C76.8082 28.2267 76.9949 31.33 76.7149 34.76H50.1849C50.5816 37.49 51.5382 39.6017 53.0549 41.095C54.5716 42.565 56.5666 43.3 59.0399 43.3ZM67.0549 27.69C66.8682 25.4267 66.0749 23.6767 64.6749 22.44C63.2749 21.18 61.3966 20.55 59.0399 20.55C56.7766 20.55 54.9216 21.1683 53.4749 22.405C52.0282 23.6417 51.0249 25.4033 50.4649 27.69H67.0549ZM84.6178 67.8V13.2H94.1378V17.855C95.2578 16.0583 96.7161 14.6583 98.5128 13.655C100.309 12.6517 102.561 12.15 105.268 12.15C107.694 12.15 109.946 12.64 112.023 13.62C114.099 14.6 115.896 15.9767 117.413 17.75C118.953 19.5 120.154 21.6 121.018 24.05C121.904 26.5 122.348 29.1833 122.348 32.1C122.348 35.04 121.904 37.735 121.018 40.185C120.154 42.635 118.953 44.735 117.413 46.485C115.896 48.235 114.099 49.6 112.023 50.58C109.946 51.56 107.694 52.05 105.268 52.05C102.561 52.05 100.309 51.5483 98.5128 50.545C96.7161 49.5417 95.2578 48.1417 94.1378 46.345V67.8H84.6178ZM103.168 43.16C104.684 43.16 106.014 42.8917 107.158 42.355C108.301 41.8183 109.246 41.06 109.993 40.08C110.763 39.1 111.334 37.9333 111.708 36.58C112.081 35.2267 112.268 33.7333 112.268 32.1C112.268 30.42 112.069 28.9033 111.673 27.55C111.299 26.1733 110.728 25.0067 109.958 24.05C109.211 23.0933 108.266 22.3583 107.123 21.845C106.003 21.3083 104.684 21.04 103.168 21.04C101.604 21.04 100.251 21.3083 99.1078 21.845C97.9878 22.3817 97.0544 23.14 96.3078 24.12C95.5844 25.0767 95.0361 26.2317 94.6628 27.585C94.3128 28.9383 94.1378 30.4433 94.1378 32.1C94.1378 33.8033 94.3244 35.3433 94.6978 36.72C95.0944 38.0733 95.6661 39.2283 96.4128 40.185C97.1828 41.1417 98.1278 41.8767 99.2478 42.39C100.368 42.9033 101.674 43.16 103.168 43.16ZM130.077 67.8V13.2H139.597V17.855C140.717 16.0583 142.175 14.6583 143.972 13.655C145.768 12.6517 148.02 12.15 150.727 12.15C153.153 12.15 155.405 12.64 157.482 13.62C159.558 14.6 161.355 15.9767 162.872 17.75C164.412 19.5 165.613 21.6 166.477 24.05C167.363 26.5 167.807 29.1833 167.807 32.1C167.807 35.04 167.363 37.735 166.477 40.185C165.613 42.635 164.412 44.735 162.872 46.485C161.355 48.235 159.558 49.6 157.482 50.58C155.405 51.56 153.153 52.05 150.727 52.05C148.02 52.05 145.768 51.5483 143.972 50.545C142.175 49.5417 140.717 48.1417 139.597 46.345V67.8H130.077ZM148.627 43.16C150.143 43.16 151.473 42.8917 152.617 42.355C153.76 41.8183 154.705 41.06 155.452 40.08C156.222 39.1 156.793 37.9333 157.167 36.58C157.54 35.2267 157.727 33.7333 157.727 32.1C157.727 30.42 157.528 28.9033 157.132 27.55C156.758 26.1733 156.187 25.0067 155.417 24.05C154.67 23.0933 153.725 22.3583 152.582 21.845C151.462 21.3083 150.143 21.04 148.627 21.04C147.063 21.04 145.71 21.3083 144.567 21.845C143.447 22.3817 142.513 23.14 141.767 24.12C141.043 25.0767 140.495 26.2317 140.122 27.585C139.772 28.9383 139.597 30.4433 139.597 32.1C139.597 33.8033 139.783 35.3433 140.157 36.72C140.553 38.0733 141.125 39.2283 141.872 40.185C142.642 41.1417 143.587 41.8767 144.707 42.39C145.827 42.9033 147.133 43.16 148.627 43.16ZM209.206 13.2V51H199.686V27.76L184.986 51H175.466V13.2H184.986V36.44L199.686 13.2H209.206ZM227.902 51V22.02H215.862V13.2H249.462V22.02H237.422V51H227.902ZM272.458 52.05C269.635 52.05 267.045 51.5717 264.688 50.615C262.355 49.635 260.348 48.27 258.668 46.52C256.988 44.7467 255.681 42.635 254.748 40.185C253.815 37.735 253.348 35.04 253.348 32.1C253.348 29.16 253.815 26.465 254.748 24.015C255.681 21.565 256.988 19.465 258.668 17.715C260.348 15.965 262.355 14.6 264.688 13.62C267.045 12.64 269.635 12.15 272.458 12.15C275.305 12.15 277.895 12.64 280.228 13.62C282.585 14.5767 284.603 15.9417 286.283 17.715C287.986 19.465 289.305 21.565 290.238 24.015C291.171 26.465 291.638 29.16 291.638 32.1C291.638 35.04 291.171 37.735 290.238 40.185C289.305 42.635 287.986 44.7467 286.283 46.52C284.603 48.27 282.585 49.635 280.228 50.615C277.895 51.5717 275.305 52.05 272.458 52.05ZM272.458 43.16C275.351 43.16 277.591 42.1917 279.178 40.255C280.765 38.3183 281.558 35.6 281.558 32.1C281.558 28.5533 280.765 25.8233 279.178 23.91C277.615 21.9967 275.375 21.04 272.458 21.04C269.541 21.04 267.301 21.9967 265.738 23.91C264.198 25.8 263.428 28.53 263.428 32.1C263.428 35.6467 264.21 38.3767 265.773 40.29C267.336 42.2033 269.565 43.16 272.458 43.16ZM299.335 67.8V13.2H308.855V17.855C309.975 16.0583 311.433 14.6583 313.23 13.655C315.026 12.6517 317.278 12.15 319.985 12.15C322.411 12.15 324.663 12.64 326.74 13.62C328.816 14.6 330.613 15.9767 332.13 17.75C333.67 19.5 334.871 21.6 335.735 24.05C336.621 26.5 337.065 29.1833 337.065 32.1C337.065 35.04 336.621 37.735 335.735 40.185C334.871 42.635 333.67 44.735 332.13 46.485C330.613 48.235 328.816 49.6 326.74 50.58C324.663 51.56 322.411 52.05 319.985 52.05C317.278 52.05 315.026 51.5483 313.23 50.545C311.433 49.5417 309.975 48.1417 308.855 46.345V67.8H299.335ZM317.885 43.16C319.401 43.16 320.731 42.8917 321.875 42.355C323.018 41.8183 323.963 41.06 324.71 40.08C325.48 39.1 326.051 37.9333 326.425 36.58C326.798 35.2267 326.985 33.7333 326.985 32.1C326.985 30.42 326.786 28.9033 326.39 27.55C326.016 26.1733 325.445 25.0067 324.675 24.05C323.928 23.0933 322.983 22.3583 321.84 21.845C320.72 21.3083 319.401 21.04 317.885 21.04C316.321 21.04 314.968 21.3083 313.825 21.845C312.705 22.3817 311.771 23.14 311.025 24.12C310.301 25.0767 309.753 26.2317 309.38 27.585C309.03 28.9383 308.855 30.4433 308.855 32.1C308.855 33.8033 309.041 35.3433 309.415 36.72C309.811 38.0733 310.383 39.2283 311.13 40.185C311.9 41.1417 312.845 41.8767 313.965 42.39C315.085 42.9033 316.391 43.16 317.885 43.16ZM378.464 13.2V51H368.944V27.76L354.244 51H344.724V13.2H354.244V36.44L368.944 13.2H378.464ZM386.17 51L393.45 37C392.307 36.4633 391.315 35.7983 390.475 35.005C389.658 34.2117 388.97 33.3367 388.41 32.38C387.873 31.4233 387.465 30.3967 387.185 29.3C386.928 28.18 386.8 27.0367 386.8 25.87C386.8 24.1667 387.08 22.545 387.64 21.005C388.2 19.465 389.063 18.1233 390.23 16.98C391.42 15.8133 392.913 14.8917 394.71 14.215C396.53 13.5383 398.688 13.2 401.185 13.2H418.65V51H409.13V38.54H402.62L396.11 51H386.17ZM402.69 20.795C401.547 20.795 400.578 20.935 399.785 21.215C398.992 21.4717 398.338 21.8333 397.825 22.3C397.312 22.7433 396.938 23.28 396.705 23.91C396.472 24.5167 396.355 25.17 396.355 25.87C396.355 26.57 396.472 27.235 396.705 27.865C396.938 28.4717 397.312 29.0083 397.825 29.475C398.338 29.9183 398.992 30.28 399.785 30.56C400.578 30.8167 401.547 30.945 402.69 30.945H409.13V20.795H402.69ZM456.899 52.05C452.512 52.05 448.826 50.965 445.839 48.795C442.852 46.625 440.822 43.5333 439.749 39.52L449.479 37.49C450.062 39.4033 450.926 40.8267 452.069 41.76C453.236 42.6933 454.846 43.16 456.899 43.16C459.162 43.16 460.994 42.5067 462.394 41.2C463.817 39.8933 464.762 38.0733 465.229 35.74H453.049V28.39H465.229C464.786 26.1967 463.876 24.4233 462.499 23.07C461.122 21.7167 459.349 21.04 457.179 21.04C455.266 21.04 453.609 21.5767 452.209 22.65C450.832 23.7233 449.852 25.2633 449.269 27.27L439.749 24.75C440.309 22.1833 441.359 19.955 442.899 18.065C444.462 16.1517 446.422 14.6933 448.779 13.69C451.159 12.6633 453.819 12.15 456.759 12.15C460.539 12.15 463.852 13.0133 466.699 14.74C469.569 16.4433 471.774 18.8117 473.314 21.845C474.877 24.8783 475.659 28.32 475.659 32.17C475.659 35.95 474.901 39.345 473.384 42.355C471.891 45.365 469.721 47.7333 466.874 49.46C464.051 51.1867 460.726 52.05 456.899 52.05ZM501.698 51.63C498.875 51.5367 496.226 51.0467 493.753 50.16C491.28 49.2733 489.11 48.0133 487.243 46.38C485.4 44.7233 483.941 42.705 482.868 40.325C481.795 37.945 481.258 35.215 481.258 32.135C481.258 29.055 481.795 26.325 482.868 23.945C483.941 21.565 485.4 19.5467 487.243 17.89C489.11 16.2333 491.28 14.9617 493.753 14.075C496.226 13.165 498.875 12.6633 501.698 12.57V1.3H511.218V12.57C514.041 12.6633 516.69 13.165 519.163 14.075C521.636 14.9617 523.795 16.2333 525.638 17.89C527.505 19.5467 528.975 21.565 530.048 23.945C531.121 26.325 531.658 29.055 531.658 32.135C531.658 35.215 531.121 37.945 530.048 40.325C528.975 42.705 527.505 44.7233 525.638 46.38C523.795 48.0133 521.636 49.2733 519.163 50.16C516.69 51.0467 514.041 51.5367 511.218 51.63V66.75H501.698V51.63ZM511.218 43.09C512.805 43.02 514.251 42.7167 515.558 42.18C516.888 41.6433 518.031 40.9083 518.988 39.975C519.945 39.0183 520.68 37.8867 521.193 36.58C521.73 35.25 521.998 33.7683 521.998 32.135C521.998 30.5017 521.73 29.02 521.193 27.69C520.68 26.36 519.945 25.2283 518.988 24.295C518.031 23.3383 516.888 22.5917 515.558 22.055C514.251 21.495 512.805 21.18 511.218 21.11V43.09ZM501.698 21.11C500.111 21.18 498.653 21.495 497.323 22.055C496.016 22.5917 494.885 23.3383 493.928 24.295C492.971 25.2283 492.225 26.36 491.688 27.69C491.175 29.02 490.918 30.5017 490.918 32.135C490.918 33.7683 491.175 35.25 491.688 36.58C492.225 37.8867 492.971 39.0183 493.928 39.975C494.885 40.9083 496.016 41.6433 497.323 42.18C498.653 42.7167 500.111 43.02 501.698 43.09V21.11ZM557.684 51.63C554.861 51.5367 552.213 51.0467 549.739 50.16C547.266 49.2733 545.096 48.0133 543.229 46.38C541.386 44.7233 539.928 42.705 538.854 40.325C537.781 37.945 537.244 35.215 537.244 32.135C537.244 29.055 537.781 26.325 538.854 23.945C539.928 21.565 541.386 19.5467 543.229 17.89C545.096 16.2333 547.266 14.9617 549.739 14.075C552.213 13.165 554.861 12.6633 557.684 12.57V1.3H567.204V12.57C570.028 12.6633 572.676 13.165 575.149 14.075C577.623 14.9617 579.781 16.2333 581.624 17.89C583.491 19.5467 584.961 21.565 586.034 23.945C587.108 26.325 587.644 29.055 587.644 32.135C587.644 35.215 587.108 37.945 586.034 40.325C584.961 42.705 583.491 44.7233 581.624 46.38C579.781 48.0133 577.623 49.2733 575.149 50.16C572.676 51.0467 570.028 51.5367 567.204 51.63V66.75H557.684V51.63ZM567.204 43.09C568.791 43.02 570.238 42.7167 571.544 42.18C572.874 41.6433 574.018 40.9083 574.974 39.975C575.931 39.0183 576.666 37.8867 577.179 36.58C577.716 35.25 577.984 33.7683 577.984 32.135C577.984 30.5017 577.716 29.02 577.179 27.69C576.666 26.36 575.931 25.2283 574.974 24.295C574.018 23.3383 572.874 22.5917 571.544 22.055C570.238 21.495 568.791 21.18 567.204 21.11V43.09ZM557.684 21.11C556.098 21.18 554.639 21.495 553.309 22.055C552.003 22.5917 550.871 23.3383 549.914 24.295C548.958 25.2283 548.211 26.36 547.674 27.69C547.161 29.02 546.904 30.5017 546.904 32.135C546.904 33.7683 547.161 35.25 547.674 36.58C548.211 37.8867 548.958 39.0183 549.914 39.975C550.871 40.9083 552.003 41.6433 553.309 42.18C554.639 42.7167 556.098 43.02 557.684 43.09V21.11ZM612.341 43.3C614.301 43.3 615.911 42.915 617.171 42.145C618.431 41.375 619.434 40.1733 620.181 38.54L629.701 41.13C628.977 42.8567 628.044 44.3967 626.901 45.75C625.781 47.1033 624.474 48.2467 622.981 49.18C621.511 50.1133 619.877 50.825 618.081 51.315C616.284 51.805 614.371 52.05 612.341 52.05C609.494 52.05 606.892 51.56 604.536 50.58C602.202 49.6 600.196 48.235 598.516 46.485C596.836 44.7117 595.529 42.6 594.596 40.15C593.686 37.7 593.231 35.0167 593.231 32.1C593.231 29.1367 593.697 26.43 594.631 23.98C595.587 21.53 596.906 19.43 598.586 17.68C600.266 15.93 602.272 14.5767 604.606 13.62C606.962 12.64 609.541 12.15 612.341 12.15C615.397 12.15 618.092 12.6867 620.426 13.76C622.759 14.8333 624.684 16.35 626.201 18.31C627.717 20.27 628.802 22.65 629.456 25.45C630.109 28.2267 630.296 31.33 630.016 34.76H603.486C603.882 37.49 604.839 39.6017 606.356 41.095C607.872 42.565 609.867 43.3 612.341 43.3ZM620.356 27.69C620.169 25.4267 619.376 23.6767 617.976 22.44C616.576 21.18 614.697 20.55 612.341 20.55C610.077 20.55 608.222 21.1683 606.776 22.405C605.329 23.6417 604.326 25.4033 603.766 27.69H620.356ZM637.849 13.2H647.369V31.4L660.179 13.2H671.939L658.289 32.1L672.849 51H660.459L647.369 32.765V51H637.849V13.2ZM685.227 51V22.02H673.187V13.2H706.787V22.02H694.747V51H685.227ZM747.126 13.2V51H737.606V27.76L722.906 51H713.386V13.2H722.906V36.44L737.606 13.2H747.126ZM775.027 51H756.862V13.2H773.627C777.991 13.2 781.327 14.075 783.637 15.825C785.947 17.575 787.102 20.095 787.102 23.385C787.102 25.485 786.671 27.2 785.807 28.53C784.944 29.8367 783.754 30.7933 782.237 31.4C784.127 31.9133 785.621 32.9633 786.717 34.55C787.814 36.1367 788.362 38.1083 788.362 40.465C788.362 43.895 787.219 46.5083 784.932 48.305C782.669 50.1017 779.367 51 775.027 51ZM773.732 20.55H765.682V28.11H773.732C775.062 28.11 776.136 27.83 776.952 27.27C777.792 26.71 778.212 25.73 778.212 24.33C778.212 22.93 777.792 21.95 776.952 21.39C776.136 20.83 775.062 20.55 773.732 20.55ZM775.027 43.65C776.357 43.65 777.431 43.3117 778.247 42.635C779.087 41.935 779.507 40.885 779.507 39.485C779.507 38.085 779.087 37.0467 778.247 36.37C777.431 35.67 776.357 35.32 775.027 35.32H765.682V43.65H775.027ZM795.28 51V13.2H804.8V27.69H820.34V13.2H829.86V51H820.34V36.51H804.8V51H795.28ZM856.657 52.05C853.834 52.05 851.244 51.5717 848.887 50.615C846.554 49.635 844.547 48.27 842.867 46.52C841.187 44.7467 839.88 42.635 838.947 40.185C838.014 37.735 837.547 35.04 837.547 32.1C837.547 29.16 838.014 26.465 838.947 24.015C839.88 21.565 841.187 19.465 842.867 17.715C844.547 15.965 846.554 14.6 848.887 13.62C851.244 12.64 853.834 12.15 856.657 12.15C859.504 12.15 862.094 12.64 864.427 13.62C866.784 14.5767 868.802 15.9417 870.482 17.715C872.185 19.465 873.504 21.565 874.437 24.015C875.37 26.465 875.837 29.16 875.837 32.1C875.837 35.04 875.37 37.735 874.437 40.185C873.504 42.635 872.185 44.7467 870.482 46.52C868.802 48.27 866.784 49.635 864.427 50.615C862.094 51.5717 859.504 52.05 856.657 52.05ZM856.657 43.16C859.55 43.16 861.79 42.1917 863.377 40.255C864.964 38.3183 865.757 35.6 865.757 32.1C865.757 28.5533 864.964 25.8233 863.377 23.91C861.814 21.9967 859.574 21.04 856.657 21.04C853.74 21.04 851.5 21.9967 849.937 23.91C848.397 25.8 847.627 28.53 847.627 32.1C847.627 35.6467 848.409 38.3767 849.972 40.29C851.535 42.2033 853.764 43.16 856.657 43.16ZM900.194 52.05C897.254 52.05 894.617 51.5483 892.284 50.545C889.974 49.5183 888.014 48.1183 886.404 46.345C884.794 44.5483 883.557 42.4367 882.694 40.01C881.854 37.56 881.434 34.9233 881.434 32.1C881.434 29.23 881.877 26.5817 882.764 24.155C883.65 21.705 884.91 19.5933 886.544 17.82C888.2 16.0467 890.184 14.6583 892.494 13.655C894.827 12.6517 897.44 12.15 900.334 12.15C902.55 12.15 904.604 12.4417 906.494 13.025C908.384 13.6083 910.064 14.4483 911.534 15.545C913.004 16.6183 914.229 17.9367 915.209 19.5C916.212 21.0633 916.924 22.8133 917.344 24.75L907.824 27.27C907.264 25.31 906.284 23.7817 904.884 22.685C903.507 21.5883 901.944 21.04 900.194 21.04C898.7 21.04 897.405 21.32 896.309 21.88C895.212 22.44 894.302 23.2217 893.579 24.225C892.879 25.205 892.354 26.3717 892.004 27.725C891.677 29.055 891.514 30.5133 891.514 32.1C891.514 33.7333 891.689 35.2383 892.039 36.615C892.412 37.9683 892.96 39.135 893.684 40.115C894.43 41.0717 895.34 41.8183 896.414 42.355C897.51 42.8917 898.77 43.16 900.194 43.16C901.267 43.16 902.2 43.0433 902.994 42.81C903.787 42.5533 904.475 42.18 905.059 41.69C905.665 41.2 906.167 40.605 906.564 39.905C906.984 39.205 907.334 38.4 907.614 37.49L917.344 39.52C916.247 43.58 914.217 46.6833 911.254 48.83C908.29 50.9767 904.604 52.05 900.194 52.05ZM931.867 51V22.02H919.827V13.2H953.427V22.02H941.387V51H931.867ZM993.766 13.2V51H984.246V27.76L969.546 51H960.026V13.2H969.546V36.44L984.246 13.2H993.766Z" fill="#009BCB"/>
</svg>
