<svg width="135" height="100" viewBox="0 0 135 100" fill="none" xmlns="http://www.w3.org/2000/svg">
<path d="M52.8103 2.46181C65.987 12.8308 78.7889 23.7452 91.5693 34.5931C105.062 46.0455 120.68 57.7351 132.662 71.0723C132.982 71.4278 133.313 71.9124 133.243 72.3834C133.043 73.7455 130.558 71.7002 129.324 71.0861C121.032 66.9584 112.945 62.3914 104.74 58.0922C81.5224 45.9263 56.1684 31.2371 29.6323 28.6587C25.4533 28.2527 17.5575 27.8195 16.1709 33.4049C14.5723 39.8447 20.3489 48.1577 23.5927 52.9703C29.8867 62.3081 37.6687 70.3477 46.2192 77.5958C49.251 80.1658 55.7981 86.5137 60.1809 87.8233C62.9015 88.6362 56.9693 83.0534 54.9184 81.0723C49.5374 75.8744 43.3776 71.5936 36.4241 68.7895C28.2052 65.475 4.75031 59.8894 1.98809 73.8092C0.292232 82.3552 7.27152 91.5565 11.513 98.3899" stroke="white" stroke-width="3" stroke-linecap="round"/>
</svg>
