<svg width="97" height="128" viewBox="0 0 97 128" fill="none" xmlns="http://www.w3.org/2000/svg">
<path fill-rule="evenodd" clip-rule="evenodd" d="M2.172 125.763L95.4339 125.763L95.4339 2.14258L2.172 2.14258L2.172 125.763Z" fill="white"/>
<path fill-rule="evenodd" clip-rule="evenodd" d="M0.796936 0.695312L0.796936 3.66931L0.796936 124.516L0.796936 127.492H3.7573L93.7734 127.492H96.7274L96.7274 0.695313L0.796936 0.695312ZM3.7573 124.516L93.7734 124.516L93.7734 3.66931L3.7573 3.66931L3.7573 124.516Z" fill="#DC001E"/>
<path fill-rule="evenodd" clip-rule="evenodd" d="M41.7108 16.4937V13.0397L44.3857 13.0397C45.7369 13.0397 46.5679 13.4624 46.5679 14.7582C46.5679 16.0774 45.7369 16.4937 44.6585 16.4937H41.7108ZM47.9487 14.7582C47.9487 12.9908 46.8703 11.8819 44.5739 11.8819L41.7108 11.8819V8.9844L46.8893 8.9844V7.81392L40.4167 7.81392V17.6451H44.8445C46.8216 17.6451 47.9487 16.4937 47.9487 14.7582ZM51.6153 8.9844H54.2796C55.6795 8.9844 56.2419 9.57283 56.2419 10.7008C56.2419 11.8203 55.6795 12.4236 54.2796 12.4236H51.6153V8.9844ZM51.6153 13.5814H54.4276C56.5591 13.5814 57.555 12.4236 57.555 10.7008C57.555 8.9844 56.5591 7.81392 54.4276 7.81392L50.3085 7.81392V17.6451H51.6153V13.5814ZM33.2801 8.72949C35.4856 8.72949 36.767 10.4013 36.767 12.7338C36.767 15.1363 35.6294 16.7295 33.2801 16.7295C30.9626 16.7295 29.8313 15.1363 29.8313 12.7338C29.8313 10.4013 31.1064 8.72949 33.2801 8.72949ZM33.2801 17.9C36.5513 17.9 38.0505 15.2872 38.0505 12.7338C38.0505 9.68754 36.2976 7.57813 33.2801 7.57813C30.3007 7.57813 28.5224 9.68754 28.5224 12.7338C28.5224 15.2872 30.0533 17.9 33.2801 17.9ZM21.3308 12.7975C21.4683 11.5144 21.5909 10.242 21.5909 8.9844L24.8241 8.9844V16.4937L20.595 16.4937C20.9354 15.4975 21.1215 14.8198 21.3308 12.7975ZM19.5588 17.6451L25.9152 17.6451L25.9152 19.7482H27.1543L27.1543 16.4937H26.1752V7.81392L20.3581 7.81392C20.3412 8.72949 20.3412 10.7773 20.0684 12.8591C19.857 14.8453 19.6159 15.6419 19.2374 16.4937H18.3388V19.7482H19.5588V17.6451ZM12.0036 8.72949C14.1964 8.72949 15.4461 10.4013 15.4461 12.7338C15.4461 15.1363 14.3127 16.7295 12.0036 16.7295C9.67336 16.7295 8.53996 15.1363 8.53996 12.7338C8.53996 10.4013 9.79812 8.72949 12.0036 8.72949ZM12.0036 17.9C15.2431 17.9 16.7528 15.2872 16.7528 12.7338C16.7528 9.68754 14.9935 7.57813 12.0036 7.57813C8.97979 7.57812 7.23952 9.68754 7.23952 12.7338C7.23952 15.2872 8.75142 17.9 12.0036 17.9ZM71.4053 13.0397H76.5902V17.6451H77.9223V7.81392H76.5902V11.8819H71.4053V7.81392H70.1112V17.6451H71.4053V13.0397ZM67.4363 16.4937L61.5262 16.4937V13.1756L66.8971 13.1756V12.0221L61.5262 12.0221V8.9844L67.3433 8.9844V7.81392L60.2003 7.81392V17.6451L67.4363 17.6451V16.4937ZM85.0399 8.72949C87.2263 8.72949 88.4908 10.4013 88.4908 12.7338C88.4908 15.1363 87.3638 16.7295 85.0399 16.7295C82.7118 16.7295 81.5784 15.1363 81.5784 12.7338C81.5784 10.4013 82.8471 8.72949 85.0399 8.72949ZM85.0399 17.9C88.2857 17.9 89.7913 15.2872 89.7913 12.7338C89.7913 9.68754 88.0446 7.57813 85.0399 7.57813C82.0351 7.57813 80.2822 9.68754 80.2822 12.7338C80.2822 15.2872 81.7814 17.9 85.0399 17.9ZM45.3415 92.6133L69.0455 92.6133V79.7613H82.1345V63.2471H71.1452C71.6421 82.1214 57.978 88.9404 48.01 88.9404C32.4745 88.9404 24.9298 76.1713 24.9298 65.6922C24.9298 54.0235 34.054 43.3702 46.6778 43.3702C57.5677 43.3702 61.0314 47.3405 61.0314 47.3405V33.1949C61.0314 33.1949 55.4743 29.556 44.9185 29.556C31.1486 29.556 14.9259 43.1089 14.9259 60.9444C14.9259 79.0837 30.0279 92.6133 45.3415 92.6133ZM52.2158 63.1154H37.6339C37.6339 63.1154 38.8244 78.2935 53.4359 78.2935C68.0982 78.2935 69.0455 63.1154 69.0455 63.1154V50.1169H52.2158V63.1154ZM10.7518 98.3871L86.7505 98.3871L86.7505 24.4173L10.7518 24.4173L10.7518 98.3871ZM80.2335 114.077C82.7244 114.077 83.2298 112.333 83.4984 111.43H86.446C85.8201 114.969 83.3482 116.688 80.3329 116.688C76.1207 116.688 73.7546 113.724 73.7546 109.191C73.7546 103.889 76.9814 101.69 80.2335 101.69C84.8601 101.69 86.3107 104.86 86.446 106.744H83.4603C83.2298 105.886 82.7667 104.254 80.2335 104.254C79.1255 104.254 76.734 104.896 76.734 109.191C76.734 112.257 78.0661 114.077 80.2335 114.077ZM70.329 116.314H67.4659L67.4659 106.657H67.43L61.7989 116.314H58.7815L58.7815 102.045H61.6319V111.755H61.6678L67.3052 102.045H70.329L70.329 116.314ZM54.8188 116.314H51.9811L51.9811 106.657H51.9304L46.3141 116.314H43.3157L43.3157 102.045H46.1513V111.755H46.2021L51.8204 102.045H54.8188L54.8188 116.314ZM39.3446 116.314H36.3716V109.943H30.7849V116.314H27.8161L27.8161 102.045H30.7849L30.7849 107.473H36.3716V102.045H39.3446L39.3446 116.314ZM25.0292 119.377H22.4642V116.314H12.325L12.325 102.045H15.298L15.298 113.839H20.8783L20.8783 102.045H23.8577L23.8577 113.839H25.0292V119.377ZM7.14014 120.609L90.3727 120.609L90.3727 21.2054L7.14014 21.2054L7.14014 120.609Z" fill="#DC001E"/>
</svg>
