<svg width="127" height="31" viewBox="0 0 127 31" fill="none" xmlns="http://www.w3.org/2000/svg">
<g id="logotype 1" clip-path="url(#clip0_5075_81827)">
<g id="Group">
<g id="Group_2">
<path id="Vector" fill-rule="evenodd" clip-rule="evenodd" d="M14.8 0.0664062C6.66216 0.0664062 0.00390625 6.89981 0.00390625 15.2518C0.00390625 23.6037 6.66216 30.4371 14.8 30.4371C22.9379 30.4371 29.5961 23.6037 29.5961 15.2518C29.6578 6.89981 22.9995 0.0664062 14.8 0.0664062ZM14.8 3.23002C8.32672 3.23002 3.08643 8.60816 3.08643 15.2518C3.08643 21.8953 8.32672 27.2735 14.8 27.2735C21.2733 27.2735 26.5136 21.8953 26.5136 15.2518C26.5753 8.67144 21.2733 3.23002 14.8 3.23002Z" fill="#2AD1C5"/>
<path id="Vector_2" fill-rule="evenodd" clip-rule="evenodd" d="M15.3535 6.77344L18.436 9.93705C17.5112 10.5698 16.4632 10.9494 15.3535 11.076V6.77344ZM15.4768 20.0606V24.6795H14.2438V20.0606C13.4423 20.6933 12.5175 21.073 11.4078 21.073C10.853 21.073 10.3598 21.0097 9.86658 20.8199C10.853 19.3646 12.4559 18.3523 14.3054 18.1624V19.9973L14.2438 20.0606H15.2918V18.1624C17.1413 18.3523 18.7442 19.3013 19.7307 20.8199C19.2375 21.0097 18.7442 21.073 18.1894 21.073C17.203 21.0097 16.2166 20.6933 15.4768 20.0606ZM19.1758 10.7596L21.5802 13.2272C21.8268 13.5436 22.0734 13.8599 22.2583 14.2396H15.3535V12.2149C16.7714 12.0883 18.1277 11.5189 19.1758 10.7596ZM22.6899 15.2519C22.7515 15.6316 22.8132 15.9479 22.8132 16.3276C22.8132 17.9726 22.0117 19.4279 20.7787 20.2504C19.6074 18.4155 17.6345 17.2134 15.4151 17.0235V15.2519H22.6899ZM8.94182 20.3137C7.70881 19.4912 6.8457 18.0359 6.8457 16.3908C6.8457 16.0112 6.90735 15.6316 6.969 15.3152H14.3054V17.0868C12.086 17.2134 10.1132 18.4788 8.94182 20.3137ZM7.33891 14.1763C7.64716 13.6068 8.01706 13.1007 8.51027 12.721L10.4831 10.6963C11.5928 11.5189 12.8875 12.025 14.3054 12.1516V14.1763H7.33891ZM11.2229 9.93705L14.3054 6.77344V11.076C13.1957 11.0127 12.086 10.5698 11.2229 9.93705Z" fill="#2AD1C5"/>
<path id="Vector_3" fill-rule="evenodd" clip-rule="evenodd" d="M35.5757 13.6671H38.6583V5.0621H42.4189V13.6671H45.5015V2.34139H35.5757V13.6671ZM48.0908 13.8569C48.4607 13.8569 48.7689 13.7937 49.0772 13.7304C49.3854 13.6671 49.6937 13.4773 49.9403 13.2242C50.1869 12.9711 50.4335 12.6548 50.6801 12.2751C50.8651 11.8955 51.05 11.3893 51.235 10.7566C51.3583 10.1239 51.4816 9.42788 51.6049 8.54207C51.6665 7.65626 51.7282 6.6439 51.7282 5.505V5.0621H54.3175V13.6671H57.4V2.34139H48.8922V3.9232C48.8922 4.87228 48.8922 5.75809 48.8306 6.51736C48.7689 7.27663 48.7689 7.90935 48.7073 8.41553C48.6456 8.92171 48.584 9.36461 48.5223 9.74425C48.4607 10.1239 48.3374 10.377 48.2757 10.5668C48.1524 10.7566 48.0908 10.9464 47.9675 11.0097C47.8442 11.1362 47.7209 11.1995 47.5976 11.1995C47.4743 11.2628 47.351 11.2628 47.2277 11.2628C47.166 11.2628 47.1044 11.2628 46.9811 11.2628C46.9194 11.2628 46.7961 11.2628 46.6728 11.2628C46.6112 11.2628 46.4879 11.2628 46.4262 11.1995L46.2413 13.6039C46.3029 13.6039 46.4879 13.6671 46.6728 13.7304C46.8578 13.7937 47.0427 13.7937 47.351 13.8569C47.5976 13.8569 47.8442 13.8569 48.0908 13.8569ZM58.4481 13.6671H61.6539L62.4554 11.6424H66.7092L67.5107 13.6671H70.7782L66.0927 2.21484H63.1335L58.4481 13.6671ZM63.3801 9.23807L64.6131 6.01118L65.8461 9.23807H63.3801ZM71.8879 13.6671H74.9704V9.36461H78.916V13.6671H81.9986V2.34139H78.916V6.58063H74.9704V2.34139H71.8879V13.6671ZM83.9097 13.6671H92.9107V11.0097H86.9922V9.23807H92.2942V6.77045H86.9922V4.99882H92.849V2.34139H83.9714V13.6671H83.9097ZM97.1646 13.6671H100.247V5.0621H103.576V2.34139H93.8971V5.0621H97.2262V13.6671H97.1646ZM102.898 13.6671H106.104L106.905 11.6424H111.159L111.961 13.6671H115.228L110.543 2.21484H107.584L102.898 13.6671ZM107.83 9.23807L109.063 6.01118L110.296 9.23807H107.83ZM39.8913 28.0299C40.5694 28.0299 41.1859 27.9667 41.7408 27.7768C42.2956 27.587 42.7272 27.3339 43.0971 27.0176C43.467 26.7012 43.7753 26.3216 43.9602 25.8787C44.1452 25.4358 44.2685 24.9929 44.2685 24.4867C44.2685 23.9805 44.2068 23.6009 44.0219 23.2845C43.8369 22.9682 43.652 22.6518 43.3437 22.3987C43.0355 22.1456 42.7272 22.0191 42.3573 21.8293C42.6655 21.7027 42.9738 21.4496 43.2204 21.2598C43.467 21.0067 43.652 20.7536 43.7753 20.4373C43.8986 20.1209 43.9602 19.7413 43.9602 19.2984C43.9602 18.8555 43.8369 18.4758 43.652 18.0962C43.467 17.7166 43.1588 17.4002 42.7889 17.1471C42.4189 16.894 41.9874 16.6409 41.4942 16.5144C41.001 16.3878 40.4461 16.2613 39.8296 16.2613C39.1515 16.2613 38.4733 16.3246 37.9185 16.5144C37.3636 16.7042 36.8704 16.894 36.3772 17.2104C35.9456 17.5267 35.5141 17.8431 35.1442 18.2227L36.6855 20.0576C36.8704 19.8678 37.0554 19.7413 37.302 19.6147C37.5486 19.4882 37.7952 19.3616 38.0418 19.2351C38.2884 19.1085 38.535 19.0453 38.8432 18.982C39.0898 18.9187 39.3364 18.9187 39.583 18.9187C39.8913 18.9187 40.1379 18.982 40.3228 19.0453C40.5078 19.1085 40.6927 19.2351 40.816 19.3616C40.9393 19.4882 41.001 19.678 41.001 19.8678C41.001 20.0576 40.9393 20.2474 40.816 20.374C40.6927 20.5005 40.5694 20.6271 40.3228 20.7536C40.0762 20.8169 39.768 20.8802 39.3981 20.8802H38.2884V23.2212H39.4597C40.0762 23.2212 40.5078 23.2845 40.816 23.4743C41.1243 23.6641 41.2476 23.9172 41.2476 24.2336C41.2476 24.4234 41.1859 24.6132 41.0626 24.8031C40.9393 24.9929 40.7544 25.1194 40.5078 25.1827C40.2612 25.246 39.9529 25.3092 39.583 25.3092C39.1515 25.3092 38.7199 25.246 38.35 25.1194C37.9801 24.9929 37.6102 24.8663 37.302 24.6765C36.9937 24.4867 36.6855 24.2336 36.4388 23.9805L34.8359 26.0685C35.1442 26.3216 35.4524 26.6379 35.8223 26.8278C36.1306 27.0809 36.5005 27.2707 36.9321 27.3972C37.302 27.587 37.7952 27.7136 38.2884 27.7768C38.6583 27.9667 39.2131 28.0299 39.8913 28.0299ZM44.885 30.1179H47.6592L47.8442 27.8401H53.701V30.1179H56.2903L56.6602 25.1194H55.4272V16.4511H46.9811V16.7675C46.9811 17.59 46.9811 18.4125 46.9194 19.0453C46.8578 19.7413 46.8578 20.374 46.7961 20.9434C46.7345 21.5129 46.6728 22.0191 46.5495 22.462C46.4879 22.9049 46.3646 23.4111 46.2413 23.7907C46.118 24.2336 45.9947 24.6132 45.8097 25.0561H44.8233V30.1179H44.885ZM49.0772 25.0561C49.2005 24.6765 49.3238 24.2969 49.4471 23.854C49.5704 23.4743 49.6321 23.0314 49.6937 22.5252C49.7554 22.0823 49.817 21.5762 49.8787 21.0067C49.9403 20.5005 49.9403 19.8678 49.9403 19.2984V19.1718H52.3447V24.9929H49.0772V25.0561ZM63.4418 28.0299C64.1199 28.0299 64.7981 27.9034 65.3529 27.7136C65.9694 27.5238 66.5243 27.2074 67.0175 26.891C67.5107 26.5114 67.9422 26.1318 68.3121 25.6256C68.6821 25.1194 68.9286 24.6132 69.1136 23.9805C69.2986 23.4111 69.4219 22.7783 69.4219 22.1456C69.4219 21.5129 69.2986 20.8802 69.1136 20.2474C68.9286 19.678 68.6204 19.1085 68.3121 18.6024C67.9422 18.0962 67.5107 17.7166 67.0175 17.3369C66.5243 16.9573 65.9694 16.7042 65.3529 16.5144C64.7364 16.3246 64.1199 16.198 63.4418 16.198C62.7636 16.198 62.0855 16.3246 61.5306 16.5144C60.9141 16.7042 60.3592 17.0206 59.866 17.3369C59.3728 17.7166 58.9413 18.0962 58.5714 18.6024C58.2015 19.1085 57.9549 19.6147 57.7699 20.2474C57.585 20.8802 57.5233 21.5129 57.5233 22.1456C57.5233 22.7783 57.6466 23.4111 57.8316 24.0438C58.0165 24.6132 58.3248 25.1827 58.633 25.6889C59.0029 26.195 59.4345 26.5747 59.9277 26.9543C60.4209 27.3339 60.9757 27.587 61.5922 27.7768C62.1471 27.9667 62.7636 28.0299 63.4418 28.0299ZM63.5034 25.1827C63.0719 25.1827 62.702 25.1194 62.3321 24.9296C61.9621 24.7398 61.7155 24.55 61.4689 24.2336C61.2223 23.9805 61.0374 23.6009 60.9141 23.2845C60.7908 22.9049 60.7291 22.5252 60.7291 22.0823C60.7291 21.6394 60.7908 21.2598 60.9141 20.8802C61.0374 20.5005 61.2223 20.1842 61.4689 19.9311C61.7155 19.678 62.0238 19.4249 62.3321 19.2984C62.702 19.1085 63.0719 19.0453 63.5034 19.0453C63.935 19.0453 64.3049 19.1085 64.6748 19.2984C65.0447 19.4882 65.2913 19.678 65.5995 19.9944C65.8461 20.2474 66.0311 20.6271 66.1544 20.9434C66.2777 21.3231 66.3393 21.7027 66.3393 22.1456C66.3393 22.5885 66.2777 22.9682 66.1544 23.3478C66.0311 23.7274 65.8461 24.0438 65.5995 24.2969C65.3529 24.55 65.0447 24.8031 64.7364 24.9296C64.3049 25.1194 63.935 25.1827 63.5034 25.1827ZM71.0248 27.8401H74.1073V24.6132H75.6486C76.3267 24.6132 76.9432 24.55 77.5597 24.3601C78.1146 24.1703 78.6694 23.9172 79.0393 23.6009C79.4709 23.2845 79.7791 22.8416 80.0257 22.3354C80.2723 21.8293 80.3956 21.2598 80.3956 20.5638C80.3956 19.9311 80.2723 19.3616 80.0874 18.8555C79.8408 18.3493 79.5325 17.9064 79.1626 17.59C78.7927 17.2736 78.2995 16.9573 77.683 16.8307C77.1282 16.6409 76.5117 16.5777 75.7719 16.5777H71.0248V27.8401ZM74.1073 22.0823V19.1085H75.5253C75.8952 19.1085 76.2034 19.1718 76.45 19.2984C76.6966 19.4249 76.9432 19.5514 77.0665 19.8045C77.1898 20.0576 77.2515 20.3107 77.2515 20.6271C77.2515 20.9434 77.1898 21.1965 77.0665 21.4496C76.9432 21.7027 76.6966 21.8293 76.45 21.9558C76.2034 22.0823 75.8952 22.1456 75.5253 22.1456H74.1073V22.0823ZM87.2388 28.0299C87.917 28.0299 88.5952 27.9034 89.15 27.7136C89.7665 27.5238 90.3214 27.2074 90.8146 26.891C91.3078 26.5114 91.7393 26.1318 92.1092 25.6256C92.4791 25.1194 92.7257 24.6132 92.9107 23.9805C93.0956 23.4111 93.2189 22.7783 93.2189 22.1456C93.2189 21.5129 93.0956 20.8802 92.9107 20.2474C92.7257 19.678 92.4175 19.1085 92.1092 18.6024C91.7393 18.0962 91.3078 17.7166 90.8146 17.3369C90.3214 16.9573 89.7665 16.7042 89.15 16.5144C88.5335 16.3246 87.917 16.198 87.2388 16.198C86.5607 16.198 85.8825 16.3246 85.3277 16.5144C84.7112 16.7042 84.1563 17.0206 83.6631 17.3369C83.1699 17.7166 82.7384 18.0962 82.3685 18.6024C81.9986 19.1085 81.752 19.6147 81.567 20.2474C81.382 20.8169 81.2588 21.4496 81.2588 22.0823C81.2588 22.7151 81.382 23.3478 81.567 23.9805C81.752 24.55 82.0602 25.1194 82.3685 25.6256C82.7384 26.1318 83.1699 26.5114 83.6631 26.891C84.1563 27.2707 84.7112 27.5238 85.3277 27.7136C85.8825 27.9667 86.5607 28.0299 87.2388 28.0299ZM87.2388 25.1827C86.8073 25.1827 86.4374 25.1194 86.0675 24.9296C85.6976 24.7398 85.451 24.55 85.2044 24.2336C84.9578 23.9805 84.7728 23.6009 84.6495 23.2845C84.5262 22.9049 84.4646 22.5252 84.4646 22.0823C84.4646 21.6394 84.5262 21.2598 84.6495 20.8802C84.7728 20.5005 84.9578 20.1842 85.2044 19.9311C85.451 19.678 85.7592 19.4249 86.0675 19.2984C86.4374 19.1085 86.8073 19.0453 87.2388 19.0453C87.6704 19.0453 88.0403 19.1085 88.4102 19.2984C88.7801 19.4882 89.0267 19.678 89.335 19.9944C89.5816 20.2474 89.7665 20.6271 89.8898 20.9434C90.0131 21.3231 90.0748 21.7027 90.0748 22.1456C90.0748 22.5885 90.0131 22.9682 89.8898 23.3478C89.7665 23.7274 89.5816 24.0438 89.335 24.2969C89.0884 24.55 88.7801 24.8031 88.4719 24.9296C88.0403 25.1194 87.6704 25.1827 87.2388 25.1827ZM94.8219 27.8401H100.555C101.418 27.8401 102.22 27.7136 102.836 27.4605C103.453 27.2074 103.946 26.8278 104.254 26.3849C104.563 25.942 104.748 25.3725 104.748 24.7398C104.748 24.2336 104.686 23.7907 104.501 23.4111C104.316 23.0314 104.069 22.7783 103.761 22.5252C103.453 22.2722 103.021 22.0823 102.59 21.9558C102.898 21.8293 103.206 21.6394 103.453 21.3863C103.7 21.1333 103.884 20.8802 104.069 20.5638C104.193 20.2474 104.316 19.8678 104.316 19.4249C104.316 19.0453 104.254 18.6656 104.131 18.3493C104.008 18.0329 103.823 17.7798 103.638 17.5267C103.33 17.2104 102.898 16.9573 102.405 16.7675C101.912 16.5777 101.295 16.5144 100.617 16.5144H94.9452V27.8401H94.8219ZM97.7811 25.3092V23.2212H100.124C100.617 23.2212 100.987 23.3478 101.233 23.4743C101.48 23.6641 101.603 23.9172 101.603 24.2336C101.603 24.6132 101.48 24.8663 101.233 25.0561C100.987 25.246 100.617 25.3092 100.124 25.3092H97.7811ZM97.7811 21.0067V18.982H99.7539C100.185 18.982 100.555 19.0453 100.802 19.2351C101.049 19.4249 101.172 19.6147 101.172 19.9311C101.172 20.3107 101.049 20.5638 100.802 20.6904C100.555 20.8802 100.185 20.9434 99.7539 20.9434H97.7811V21.0067ZM106.104 27.8401H110.974C111.652 27.8401 112.269 27.7768 112.824 27.587C113.379 27.3972 113.81 27.1441 114.242 26.8278C114.612 26.5114 114.92 26.0685 115.105 25.5623C115.29 25.0561 115.413 24.55 115.413 23.9172C115.413 23.2845 115.29 22.7151 115.043 22.2089C114.797 21.7027 114.488 21.3231 114.057 21.0067C113.625 20.6904 113.132 20.4373 112.577 20.3107C112.022 20.1209 111.406 20.0576 110.728 20.0576H109.063V16.4511H105.981V27.8401H106.104ZM109.186 25.1827V22.5252H110.789C111.098 22.5252 111.406 22.5885 111.652 22.7151C111.899 22.8416 112.084 22.9682 112.207 23.158C112.331 23.3478 112.392 23.6009 112.392 23.854C112.392 24.2969 112.269 24.6132 111.961 24.8663C111.652 25.1194 111.283 25.1827 110.789 25.1827H109.186ZM116.215 27.8401H119.729L121.948 24.4234H123.304V27.8401H126.387V16.4511H121.147C120.53 16.4511 119.914 16.5144 119.359 16.7042C118.804 16.8307 118.311 17.0838 117.879 17.4002C117.448 17.7166 117.139 18.0962 116.893 18.6024C116.646 19.1085 116.523 19.678 116.523 20.3107C116.523 20.8802 116.646 21.4496 116.831 21.8925C117.016 22.3354 117.263 22.7151 117.633 23.0314C118.002 23.3478 118.372 23.6009 118.804 23.7907L116.215 27.8401ZM121.332 21.9558C120.962 21.9558 120.715 21.8925 120.468 21.766C120.222 21.6394 120.037 21.5129 119.914 21.2598C119.79 21.07 119.729 20.8169 119.729 20.5005C119.729 20.1842 119.79 19.9311 119.914 19.7413C120.037 19.5515 120.222 19.3616 120.468 19.2351C120.715 19.1085 121.023 19.0453 121.332 19.0453H123.366V21.8925H121.332V21.9558Z" fill="#2AD1C5"/>
</g>
</g>
</g>
<defs>
<clipPath id="clip0_5075_81827">
<rect width="127" height="31" fill="white"/>
</clipPath>
</defs>
</svg>
