<svg width="114" height="30" viewBox="0 0 114 30" fill="none" xmlns="http://www.w3.org/2000/svg">
<g id="logo 3" clip-path="url(#clip0_5458_26489)">
<g id="Layer 2">
<g id="Layer 1">
<path id="Vector" fill-rule="evenodd" clip-rule="evenodd" d="M49.3668 20.2332H40.8633V8.67188H49.2116L49.4993 10.6955H44.6059V13.2969H49.2116V15.3206H44.6059V18.2109H49.6773L49.3668 20.2332Z" fill="black"/>
<g id="Group 2131329464">
<path id="Vector_2" d="M27.7087 24.0352H28.2038V24.5552H28.4045C28.701 24.5473 28.9947 24.6148 29.2583 24.7514C29.4932 24.8768 29.6852 25.0701 29.8095 25.3063C29.9402 25.5583 30.006 25.8392 30.0009 26.1233C30.0064 26.4218 29.9325 26.7163 29.7868 26.9766C29.6514 27.2182 29.4474 27.4137 29.2007 27.5382C28.9262 27.6686 28.6251 27.7325 28.3216 27.725H28.2038V28.3754H27.7087V27.725H27.5749C27.2715 27.7327 26.9706 27.6678 26.6971 27.5355C26.4512 27.4095 26.2488 27.2119 26.1164 26.9685C25.9812 26.7145 25.9091 26.4314 25.9063 26.1434C25.9035 25.8554 25.9701 25.571 26.1004 25.3144C26.2278 25.0776 26.4212 24.8833 26.657 24.7554C26.9199 24.6166 27.2138 24.5476 27.5107 24.5552H27.7034L27.7087 24.0352ZM27.7087 24.9758H27.5455C27.3946 24.9672 27.2436 24.9899 27.1018 25.0424C26.9601 25.0949 26.8305 25.176 26.7212 25.2808C26.6179 25.3925 26.538 25.5239 26.4863 25.6673C26.4345 25.8106 26.4121 25.963 26.4202 26.1152C26.4103 26.2765 26.4335 26.4382 26.4886 26.5901C26.5436 26.7419 26.6292 26.8808 26.74 26.998C26.862 27.1075 27.0044 27.1915 27.159 27.2452C27.3136 27.299 27.4772 27.3214 27.6405 27.3111H27.7087V24.9758ZM28.2038 27.3111H28.2761C28.4392 27.3212 28.6026 27.2985 28.7568 27.2443C28.911 27.1901 29.0528 27.1054 29.174 26.9954C29.2847 26.8786 29.3704 26.7402 29.4256 26.5888C29.4809 26.4374 29.5045 26.2762 29.4951 26.1152C29.5037 25.9628 29.4819 25.8103 29.4309 25.6665C29.3798 25.5227 29.3007 25.3907 29.198 25.2781C29.088 25.1734 28.9576 25.0926 28.8152 25.0406C28.6727 24.9885 28.5211 24.9665 28.3698 24.9758H28.2038V27.3111Z" fill="black"/>
<path id="Vector_3" d="M32.7828 28.3184L32.6878 27.8683H32.6637C32.5406 28.0376 32.3798 28.1756 32.1941 28.2714C32.0085 28.3468 31.8094 28.3825 31.6093 28.3762C31.3428 28.3922 31.0801 28.3057 30.8747 28.1343C30.7831 28.0455 30.7117 27.9377 30.6655 27.8185C30.6193 27.6992 30.5994 27.5714 30.6071 27.4437C30.6071 26.8041 31.116 26.469 32.1339 26.4386L32.6691 26.4211V26.2249C32.6852 26.0281 32.628 25.8322 32.5085 25.6753C32.4413 25.6105 32.361 25.561 32.273 25.5302C32.185 25.4994 32.0915 25.4879 31.9987 25.4966C31.6873 25.5099 31.3828 25.593 31.1075 25.7398L30.9603 25.373C31.122 25.286 31.2937 25.2192 31.4715 25.1741C31.6532 25.1262 31.8403 25.1018 32.0281 25.1016C32.4028 25.1016 32.6811 25.1853 32.8631 25.3528C33.0438 25.5208 33.1307 25.7882 33.1307 26.1591V28.3184H32.7828ZM31.7043 27.9811C31.8313 27.9884 31.9585 27.9704 32.0786 27.9282C32.1987 27.886 32.3093 27.8204 32.4041 27.7352C32.4919 27.6447 32.5599 27.5367 32.6036 27.4182C32.6474 27.2998 32.6661 27.1734 32.6584 27.0473V26.7624L32.1807 26.7826C31.802 26.796 31.5277 26.8551 31.3604 26.9599C31.2785 27.0111 31.2119 27.0836 31.1676 27.1697C31.1233 27.2558 31.103 27.3523 31.1089 27.449C31.1041 27.5226 31.1156 27.5964 31.1427 27.6649C31.1698 27.7335 31.2117 27.7952 31.2654 27.8454C31.3894 27.9417 31.5438 27.9899 31.7003 27.9811H31.7043Z" fill="black"/>
<path id="Vector_4" d="M35.7283 28.3775C35.535 28.3801 35.3434 28.3411 35.1663 28.2633C34.9955 28.1866 34.8481 28.0655 34.7394 27.9126H34.7046C34.7269 28.0868 34.7385 28.2623 34.7394 28.438V29.74H34.2617V25.1553H34.6578L34.7247 25.588H34.7474C34.8548 25.4273 35.0025 25.298 35.1756 25.2131C35.3515 25.1328 35.5431 25.0933 35.7363 25.0975C35.9199 25.0872 36.1034 25.1209 36.2715 25.1956C36.4397 25.2704 36.5878 25.3841 36.7037 25.5275C36.9312 25.8137 37.0449 26.2168 37.0449 26.7368C37.0449 27.2569 36.9299 27.6613 36.6984 27.9462C36.5821 28.0899 36.4335 28.2039 36.2649 28.2788C36.0963 28.3538 35.9124 28.3876 35.7283 28.3775ZM35.6587 25.5047C35.3375 25.5047 35.1047 25.5933 34.9602 25.7734C34.8157 25.9535 34.7434 26.237 34.7394 26.628V26.7409C34.7394 27.1888 34.813 27.5068 34.9602 27.6949C35.1074 27.883 35.3442 27.9789 35.6707 27.9825C35.7967 27.9868 35.9217 27.9585 36.0337 27.9004C36.1457 27.8423 36.241 27.7563 36.3103 27.6506C36.4793 27.3767 36.5601 27.0572 36.5418 26.7355C36.5418 26.3404 36.4656 26.0381 36.3103 25.8271C36.2375 25.7233 36.14 25.6395 36.0266 25.5831C35.9133 25.5268 35.7877 25.4998 35.6614 25.5047H35.6587Z" fill="black"/>
<path id="Vector_5" d="M39.6565 27.857L39.7462 27.5883L39.8693 27.2483L40.723 25.1602H41.3305V28.3192H40.9076V25.7057L40.8501 25.8737L40.6788 26.3158L39.876 28.3192H39.4745L38.661 26.3037C38.5803 26.1065 38.5101 25.9051 38.4509 25.7003V28.3139H38.0254V25.1602H38.6088L39.4344 27.1677C39.52 27.3935 39.5941 27.6236 39.6565 27.857Z" fill="black"/>
<path id="Vector_6" d="M44.316 28.3165L44.221 27.8663H44.1983C44.0745 28.0355 43.9132 28.1735 43.7273 28.2694C43.5418 28.345 43.3426 28.3807 43.1425 28.3742C42.876 28.3897 42.6136 28.3033 42.4079 28.1324C42.3163 28.0435 42.2449 27.9357 42.1987 27.8165C42.1525 27.6973 42.1326 27.5694 42.1403 27.4417C42.1403 26.8021 42.6492 26.4671 43.6671 26.4366L44.2023 26.4191V26.223C44.2179 26.0264 44.1613 25.8308 44.0431 25.6734C43.9755 25.6087 43.8949 25.5593 43.8067 25.5285C43.7186 25.4976 43.6249 25.4861 43.5319 25.4947C43.2205 25.5079 42.916 25.591 42.6407 25.7379L42.4949 25.371C42.6562 25.2842 42.8274 25.2175 43.0047 25.1722C43.1864 25.1242 43.3735 25.0998 43.5613 25.0996C43.9369 25.0996 44.2152 25.1834 44.3963 25.3509C44.5783 25.5188 44.6639 25.7862 44.6639 26.1571V28.3165H44.316ZM43.2375 27.9792C43.3646 27.9866 43.4918 27.9686 43.6119 27.9264C43.732 27.8842 43.8426 27.8186 43.9373 27.7333C44.0253 27.6428 44.0934 27.5349 44.1375 27.4164C44.1815 27.2979 44.2004 27.1715 44.1929 27.0453V26.7604L43.7152 26.7806C43.3352 26.794 43.0622 26.8532 42.8936 26.958C42.8117 27.0092 42.7451 27.0816 42.7008 27.1677C42.6565 27.2538 42.6362 27.3504 42.6421 27.4471C42.6373 27.5207 42.6488 27.5944 42.6759 27.663C42.703 27.7316 42.7449 27.7932 42.7986 27.8435C42.9238 27.9405 43.0797 27.9887 43.2375 27.9792Z" fill="black"/>
<path id="Vector_7" d="M48.8757 29.4139H48.398V28.3187H45.8008V25.1543H46.2785V27.9062H47.9524V25.1543H48.4301V27.9062H48.8757V29.4139Z" fill="black"/>
<path id="Vector_8" d="M50.9663 28.3742C50.7627 28.3848 50.5592 28.3523 50.369 28.2787C50.1788 28.205 50.0061 28.092 49.8624 27.9469C49.5947 27.662 49.4609 27.2656 49.4609 26.7604C49.4609 26.2551 49.5867 25.8439 49.8369 25.551C49.9591 25.4033 50.1136 25.2858 50.2884 25.2077C50.4631 25.1297 50.6534 25.0931 50.8445 25.1009C51.0197 25.0928 51.1945 25.1236 51.3564 25.1912C51.5183 25.2588 51.6634 25.3615 51.7812 25.4919C52.021 25.7802 52.1443 26.1486 52.1264 26.5239V26.8275H49.9534C49.9406 27.1348 50.0406 27.436 50.2344 27.6741C50.3314 27.7728 50.4484 27.8495 50.5774 27.8991C50.7064 27.9487 50.8445 27.97 50.9823 27.9616C51.3292 27.9602 51.6721 27.8875 51.9899 27.748V28.1753C51.8359 28.244 51.6754 28.2972 51.5109 28.3339C51.3311 28.3653 51.1487 28.3788 50.9663 28.3742ZM50.8325 25.4946C50.7196 25.4897 50.607 25.5094 50.5023 25.5523C50.3977 25.5952 50.3036 25.6603 50.2263 25.7432C50.0641 25.9367 49.9701 26.1785 49.9587 26.4312H51.6059C51.6226 26.1831 51.5515 25.937 51.4052 25.7364C51.3347 25.6557 51.2469 25.592 51.1484 25.5501C51.05 25.5082 50.9433 25.4892 50.8365 25.4946H50.8325Z" fill="black"/>
<path id="Vector_9" d="M55.6417 25.9484C55.6476 26.0348 55.6349 26.1214 55.6044 26.2023C55.5739 26.2832 55.5264 26.3566 55.4651 26.4174C55.3237 26.5347 55.152 26.6093 54.97 26.6324V26.6579C55.1859 26.6727 55.3916 26.756 55.5574 26.8958C55.6209 26.9621 55.6702 27.0408 55.7022 27.127C55.7342 27.2132 55.7482 27.3051 55.7434 27.397C55.7498 27.5288 55.7236 27.6601 55.6671 27.7792C55.6106 27.8983 55.5255 28.0015 55.4196 28.0796C55.2041 28.2395 54.8843 28.3187 54.4749 28.3187H53.0859V25.1543H54.4695C55.251 25.1543 55.6417 25.419 55.6417 25.9484ZM55.176 25.9941C55.1813 25.9277 55.1671 25.8611 55.1352 25.8027C55.1034 25.7442 55.0553 25.6963 54.9967 25.6649C54.8285 25.5905 54.645 25.5574 54.4615 25.5682H53.5623V26.4604H54.3652C54.5788 26.4764 54.793 26.439 54.9887 26.3515C55.0496 26.315 55.0992 26.2623 55.1323 26.1992C55.1653 26.1362 55.1805 26.0652 55.176 25.9941ZM55.2657 27.3661C55.2708 27.2919 55.2554 27.2177 55.2211 27.1518C55.1869 27.0859 55.1352 27.0307 55.0717 26.9925C54.8708 26.9 54.6499 26.8598 54.4294 26.8756H53.5636V27.917H54.4401C54.9896 27.917 55.2643 27.7333 55.2643 27.3661H55.2657Z" fill="black"/>
<path id="Vector_10" d="M58.8274 25.5641H57.8078V28.3187H57.326V25.5641H56.3145V25.1543H58.8274V25.5641Z" fill="black"/>
<path id="Vector_11" d="M59.9268 25.1538V27.16L59.9067 27.68L59.8987 27.8453L61.6034 25.1484H62.1989V28.3129H61.7533V26.3779L61.7626 25.9963L61.776 25.6214L60.074 28.3089H59.4785V25.1538H59.9268Z" fill="black"/>
<path id="Vector_12" d="M63.5433 25.1543V26.3085C63.5433 26.6785 63.7534 26.8635 64.1736 26.8635C64.3436 26.8642 64.5127 26.8369 64.674 26.7829C64.8624 26.7149 65.0421 26.6247 65.2092 26.5141V25.1543H65.6869V28.3187H65.2092V26.8863C65.0374 27.0098 64.8491 27.1084 64.6499 27.1793C64.4618 27.2394 64.2652 27.2684 64.0678 27.2653C63.799 27.281 63.5344 27.1919 63.3292 27.0167C63.2391 26.9306 63.1686 26.826 63.1224 26.7101C63.0762 26.5941 63.0555 26.4696 63.0616 26.3448V25.1543H63.5433Z" fill="black"/>
<path id="Vector_13" d="M68.1818 28.3742C67.9784 28.3848 67.7751 28.3523 67.5851 28.2786C67.3951 28.205 67.2227 28.092 67.0792 27.9469C66.8115 27.662 66.6777 27.2656 66.6777 26.7604C66.6777 26.2551 66.8035 25.8439 67.0537 25.551C67.1759 25.4033 67.3304 25.2858 67.5052 25.2077C67.6799 25.1297 67.8702 25.0931 68.0613 25.1009C68.2365 25.0928 68.4113 25.1236 68.5732 25.1912C68.7351 25.2588 68.8802 25.3615 68.998 25.4919C69.2369 25.7807 69.3596 26.1488 69.3419 26.5239V26.8275H67.1728C67.1603 27.1345 67.2597 27.4355 67.4525 27.6741C67.5499 27.7728 67.6671 27.8495 67.7963 27.899C67.9255 27.9486 68.0637 27.97 68.2018 27.9616C68.5483 27.9603 68.8907 27.8876 69.2081 27.748V28.1753C69.0545 28.244 68.8945 28.2971 68.7304 28.3339C68.5493 28.3655 68.3655 28.379 68.1818 28.3742ZM68.0479 25.4946C67.935 25.4895 67.8223 25.5091 67.7177 25.552C67.613 25.595 67.5189 25.6602 67.4418 25.7432C67.2796 25.9367 67.1855 26.1785 67.1742 26.4312H68.8227C68.8396 26.1828 68.768 25.9366 68.6206 25.7364C68.5505 25.6556 68.463 25.5919 68.3647 25.55C68.2664 25.5081 68.1599 25.4891 68.0533 25.4946H68.0479Z" fill="black"/>
<path id="Vector_14" d="M71.5614 28.3757C71.1046 28.3757 70.7514 28.2346 70.5016 27.9524C70.2518 27.6703 70.127 27.2712 70.127 26.7552C70.127 26.2258 70.2536 25.8168 70.507 25.5284C70.7603 25.2399 71.1225 25.0957 71.5935 25.0957C71.746 25.0958 71.898 25.1121 72.0471 25.1441C72.1704 25.168 72.2904 25.2068 72.4044 25.2596L72.2572 25.6628C72.1449 25.6191 72.0295 25.5841 71.912 25.5579C71.8037 25.5319 71.6928 25.5179 71.5815 25.5163C70.9418 25.5163 70.6216 25.9261 70.6207 26.7458C70.6008 27.0616 70.6829 27.3755 70.8549 27.6407C70.9367 27.7455 71.0426 27.8286 71.1637 27.8829C71.2847 27.9373 71.4171 27.9611 71.5493 27.9524C71.8254 27.9488 72.098 27.8913 72.3522 27.7831V28.2172C72.1047 28.3318 71.8337 28.3861 71.5614 28.3757Z" fill="black"/>
<path id="Vector_15" d="M75.0905 25.1543H75.615L74.2542 26.6808L75.7261 28.3187H75.1681L73.7297 26.7157V28.3187H73.252V25.1543H73.7297V26.6929L75.0905 25.1543Z" fill="black"/>
<path id="Vector_16" d="M78.3947 28.3165L78.2997 27.8663H78.2783C78.1546 28.0351 77.9939 28.173 77.8086 28.2694C77.6226 28.3448 77.423 28.3805 77.2225 28.3742C76.956 28.3897 76.6936 28.3033 76.4879 28.1324C76.3965 28.0433 76.3252 27.9356 76.279 27.8164C76.2329 27.6972 76.2128 27.5694 76.2203 27.4417C76.2203 26.8021 76.7296 26.4671 77.7484 26.4366L78.2836 26.4191V26.223C78.2992 26.0264 78.2426 25.8308 78.1244 25.6734C78.0571 25.6087 77.9767 25.5593 77.8888 25.5285C77.8008 25.4977 77.7073 25.4861 77.6146 25.4947C77.3027 25.5078 76.9977 25.5909 76.7221 25.7379L76.5762 25.371C76.7375 25.2842 76.9087 25.2175 77.086 25.1722C77.2677 25.1242 77.4548 25.0998 77.6427 25.0996C78.0182 25.0996 78.2965 25.1834 78.4776 25.3509C78.6596 25.5188 78.7452 25.7862 78.7452 26.1571V28.3165H78.3947ZM77.3162 27.9792C77.5731 27.9937 77.8253 27.9053 78.0173 27.7333C78.1048 27.6425 78.1726 27.5345 78.2164 27.4161C78.2601 27.2977 78.2789 27.1714 78.2716 27.0453V26.7604L77.7939 26.7806C77.4138 26.794 77.1409 26.8532 76.9723 26.958C76.8903 27.0092 76.8237 27.0816 76.7794 27.1677C76.7351 27.2538 76.7148 27.3504 76.7207 27.4471C76.7159 27.5207 76.7274 27.5944 76.7545 27.663C76.7816 27.7316 76.8235 27.7932 76.8773 27.8435C77.0026 27.9403 77.1584 27.9884 77.3162 27.9792Z" fill="black"/>
<path id="Vector_17" d="M80.0377 28.3193H79.4824L80.3883 26.9823C80.1721 26.9441 79.975 26.8338 79.829 26.6692C79.6961 26.5044 79.6272 26.2967 79.635 26.0847C79.6288 25.9563 79.6518 25.8282 79.7021 25.7099C79.7524 25.5917 79.8287 25.4865 79.9253 25.4021C80.1569 25.2238 80.445 25.1359 80.7362 25.1549H82.1385V28.3193H81.6622V27.0549H80.8593L80.0377 28.3193ZM80.0979 26.0901C80.0979 26.4556 80.3656 26.6383 80.8914 26.6383H81.6595V25.5634H80.7937C80.3299 25.5678 80.0979 25.7434 80.0979 26.0901Z" fill="black"/>
<path id="Vector_18" d="M87.0489 25.1543H87.572L86.2112 26.6808L87.6831 28.3187H87.1251L85.6867 26.7157V28.3187H85.209V25.1543H85.6867V26.6929L87.0489 25.1543Z" fill="black"/>
<path id="Vector_19" d="M91.1337 26.7404C91.1337 27.2564 91.0044 27.6595 90.7457 27.9498C90.6094 28.0959 90.443 28.2105 90.2581 28.2854C90.0733 28.3604 89.8743 28.3939 89.6752 28.3838C89.4115 28.3886 89.1516 28.3198 88.9245 28.1849C88.7033 28.0485 88.5273 27.8493 88.4187 27.6125C88.2946 27.3391 88.2338 27.0409 88.2408 26.7404C88.2408 26.2245 88.3692 25.8213 88.6261 25.5311C88.7623 25.3849 88.9287 25.2706 89.1137 25.196C89.2986 25.1215 89.4976 25.0887 89.6966 25.0998C89.8934 25.091 90.0897 25.1259 90.2716 25.2021C90.4534 25.2783 90.6162 25.3938 90.7484 25.5405C91.0039 25.8334 91.1337 26.2312 91.1337 26.7404ZM88.7332 26.7404C88.7332 27.1454 88.8135 27.4535 88.974 27.6649C89.0581 27.7716 89.1666 27.8562 89.2904 27.9114C89.4142 27.9667 89.5494 27.9909 89.6846 27.982C89.8198 27.9906 89.955 27.9664 90.0789 27.9114C90.2028 27.8565 90.3117 27.7724 90.3964 27.6663C90.5588 27.4558 90.6395 27.1471 90.6386 26.7404C90.6386 26.3373 90.5584 26.0323 90.3964 25.824C90.3105 25.7181 90.2006 25.6343 90.0758 25.5799C89.951 25.5254 89.815 25.5018 89.6792 25.5109C89.5452 25.5017 89.4109 25.5249 89.2877 25.5787C89.1645 25.6325 89.056 25.7153 88.9714 25.82C88.8126 26.0216 88.7332 26.3284 88.7332 26.7404Z" fill="black"/>
<path id="Vector_20" d="M93.6372 27.857L93.7269 27.5883L93.85 27.2483L94.705 25.1602H95.3112V28.3192H94.8883V25.7057L94.8308 25.8737L94.6635 26.3158L93.85 28.3192H93.4485L92.6336 26.3037C92.5529 26.1065 92.4828 25.9051 92.4236 25.7003V28.3139H91.998V25.1602H92.5828L93.4071 27.1677C93.496 27.3932 93.5728 27.6233 93.6372 27.857Z" fill="black"/>
<path id="Vector_21" d="M96.9516 28.3187H96.4766V25.1543H99.122V28.3187H98.6389V25.5695H96.9529L96.9516 28.3187Z" fill="black"/>
<path id="Vector_22" d="M101.984 28.3184L101.889 27.8683H101.866C101.742 28.0375 101.581 28.1755 101.395 28.2714C101.21 28.347 101.011 28.3827 100.81 28.3762C100.544 28.3916 100.282 28.3052 100.076 28.1343C99.9842 28.0455 99.9129 27.9377 99.8667 27.8185C99.8205 27.6992 99.8005 27.5714 99.8083 27.4437C99.8083 26.8041 100.317 26.469 101.335 26.4386L101.87 26.4211V26.2249C101.886 26.0283 101.829 25.8328 101.711 25.6753C101.643 25.6106 101.563 25.5612 101.475 25.5304C101.387 25.4996 101.293 25.4881 101.2 25.4966C100.888 25.5099 100.584 25.593 100.309 25.7398L100.163 25.373C100.324 25.2862 100.495 25.2194 100.673 25.1741C100.854 25.1262 101.041 25.1018 101.229 25.1016C101.606 25.1016 101.884 25.1853 102.064 25.3528C102.246 25.5208 102.332 25.7882 102.332 26.1591V28.3184H101.984ZM100.905 27.9811C101.033 27.9884 101.16 27.9704 101.28 27.9282C101.4 27.886 101.511 27.8204 101.605 27.7352C101.693 27.6447 101.761 27.5367 101.805 27.4182C101.849 27.2998 101.867 27.1734 101.86 27.0473V26.7624L101.383 26.7826C101.003 26.796 100.73 26.8551 100.562 26.9599C100.48 27.0111 100.413 27.0836 100.369 27.1697C100.324 27.2558 100.304 27.3523 100.31 27.449C100.305 27.5226 100.317 27.5964 100.344 27.6649C100.371 27.7335 100.413 27.7952 100.467 27.8454C100.592 27.9424 100.748 27.9906 100.905 27.9811Z" fill="black"/>
<path id="Vector_23" d="M103.946 25.1543V26.4792H105.711V25.1543H106.187V28.3187H105.711V26.8917H103.944V28.3187H103.467V25.1543H103.946Z" fill="black"/>
<path id="Vector_24" d="M107.798 25.1543V27.1605L107.778 27.6859L107.77 27.8511L109.474 25.1543H110.07V28.3187H109.624V26.3838L109.632 26.0022L109.647 25.6273L107.945 28.3147H107.35V25.1543H107.798Z" fill="black"/>
<path id="Vector_25" d="M111.386 28.3193H110.828L111.731 26.9823C111.515 26.9441 111.318 26.8338 111.172 26.6692C111.039 26.5044 110.97 26.2967 110.978 26.0847C110.972 25.9563 110.995 25.8282 111.045 25.7099C111.095 25.5917 111.172 25.4865 111.268 25.4021C111.5 25.2238 111.788 25.1359 112.079 25.1549H113.484V28.3193H113.008V27.0549H112.205L111.386 28.3193ZM111.446 26.0901C111.446 26.4556 111.714 26.6383 112.24 26.6383H113.008V25.5634H112.142C111.678 25.5678 111.446 25.7434 111.446 26.0901Z" fill="black"/>
</g>
<path id="Vector_26" fill-rule="evenodd" clip-rule="evenodd" d="M58.518 8.67188H53.4707V20.2278H57.2174V16.2464L58.1059 16.2383C58.5166 16.2383 59.3222 16.2034 59.6861 16.1671C62.4185 15.8984 63.8342 14.6138 63.8342 12.4356C63.8329 10.0922 62.3128 8.67188 58.518 8.67188ZM57.6041 14.6084H57.212V10.4268H58.1915C58.7069 10.4487 59.1934 10.6715 59.5479 11.0478C59.9024 11.4242 60.097 11.9244 60.0902 12.4423C60.0902 13.8721 58.8926 14.6084 57.6041 14.6084Z" fill="black"/>
<path id="Vector_27" fill-rule="evenodd" clip-rule="evenodd" d="M101.839 20.2332L97.2267 14.2174L102.119 8.67188H98.5006L94.0675 13.52V8.67188H90.3262V20.2332H94.0675V15.334L97.695 20.2332H101.839Z" fill="black"/>
<path id="Vector_28" fill-rule="evenodd" clip-rule="evenodd" d="M34.3349 14.0984V14.0084C35.5057 13.7894 36.6953 12.8998 36.6953 11.3613C36.6953 9.48006 34.9718 8.67383 32.4241 8.67383H25.9062V20.2365H32.6944C35.5044 20.2365 37.1315 19.0554 37.1315 17.0344C37.1315 15.0995 35.6355 14.2543 34.3349 14.0984ZM29.6516 10.4274H31.0298C32.1123 10.4274 32.8175 11.0186 32.8175 11.9498C32.8175 12.9455 31.9357 13.608 30.7555 13.608H29.6516V10.4274ZM31.1516 18.5018H29.6476V15.0498H31.0592C32.1953 15.0498 33.1012 15.6706 33.1012 16.7079C33.1012 17.7184 32.317 18.5018 31.1476 18.5018H31.1516Z" fill="black"/>
<path id="Vector_29" fill-rule="evenodd" clip-rule="evenodd" d="M75.4877 8.67188L75.8102 10.6969H72.1599V20.2991H68.25V10.6969H64.7656L65.0734 8.67188H75.4877Z" fill="black"/>
<path id="Vector_30" fill-rule="evenodd" clip-rule="evenodd" d="M86.5706 20.2332H78.0684V8.67188H86.4154L86.7031 10.6955H81.8097V13.2969H86.4154V15.3206H81.8097V18.2109H86.881L86.5706 20.2332Z" fill="black"/>
<path id="Vector_31" fill-rule="evenodd" clip-rule="evenodd" d="M0 17.3428C5.55977 17.3428 10.5522 16.2383 13.979 14.4512C16.9228 15.9857 18.7092 18.0066 18.7092 20.2292C18.7092 25.0235 10.3327 28.9109 0 28.9109V17.3428Z" fill="black"/>
<path id="Vector_32" fill-rule="evenodd" clip-rule="evenodd" d="M0 0C9.91927 0.10481 17.8756 3.71269 17.8756 8.1483C17.8756 10.3614 15.8952 12.3689 12.6784 13.8376C9.34523 12.4119 4.89206 11.556 0 11.556V0Z" fill="black" fill-opacity="0.36"/>
<path id="Vector_33" fill-rule="evenodd" clip-rule="evenodd" d="M112.704 17.4671C112.007 18.0261 111.117 18.6012 109.848 18.6012C107.974 18.6012 106.712 17.3488 106.712 14.4518C106.712 11.5184 107.978 10.2661 109.848 10.2661C111.084 10.2661 111.962 10.8452 112.65 11.3921L114.006 9.83476C112.77 8.9076 111.397 8.38086 109.571 8.38086C105.534 8.38086 102.688 10.7525 102.688 14.4545C102.688 18.1564 105.534 20.5213 109.571 20.5213C111.361 20.5213 112.718 20.0363 113.935 19.1319L112.704 17.4671Z" fill="black"/>
</g>
</g>
</g>
<defs>
<clipPath id="clip0_5458_26489">
<rect width="114" height="30" fill="white"/>
</clipPath>
</defs>
</svg>
