<svg width="576" height="155" viewBox="0 0 576 155" fill="none" xmlns="http://www.w3.org/2000/svg">
<path d="M536.149 66.4078C536.149 62.8001 541.059 59.8898 547.491 59.8898C554.2 59.8898 561.048 63.0807 565.68 68.2812L574.051 58.0191C566.096 50.9426 558.003 47.268 547.907 47.268C535.317 47.268 522.317 53.0939 522.317 66.4078C522.317 82.7764 536.424 83.9549 547.907 84.9277C554.339 85.4087 560.011 85.8977 560.011 90.1282C560.011 94.7033 553.509 96.7825 547.768 96.7825C541.128 96.7825 533.936 93.9417 528.68 87.6295L519.757 97.1326C526.88 105.871 537.187 109.685 547.283 109.685C559.941 109.685 573.843 103.651 573.843 89.8502C573.843 74.2433 559.595 72.7201 548.667 71.611C541.819 70.9162 536.149 70.2935 536.149 66.4078ZM472.52 70.2935C474.803 64.5371 479.712 61.2073 486.973 61.2073C494.304 61.2073 498.661 64.7429 500.531 70.2935H472.52ZM487.667 47.268C470.376 47.268 456.472 60.7904 456.472 78.5459C456.472 95.2592 468.784 109.685 486.904 109.685C497.832 109.685 506.685 104.412 512.979 95.3982L503.435 87.2847C500.045 92.4852 493.96 95.5371 486.696 95.5371C479.296 95.5371 471.619 89.9892 470.997 81.8036H516.16V76.9505C516.021 59.8203 504.403 47.268 487.667 47.268ZM310.747 47.268C293.456 47.268 279.555 60.7904 279.555 78.5459C279.555 95.2592 291.867 109.685 309.987 109.685C320.915 109.685 329.768 104.412 336.061 95.3982L326.517 87.2847C323.128 92.4852 317.043 95.5371 309.779 95.5371C302.379 95.5371 294.701 89.9892 294.08 81.8036H339.243V76.9505C339.173 59.8203 327.485 47.268 310.747 47.268ZM435.587 107.534H449.419V49.4166H435.587V107.536V107.534ZM442.501 21.1211C436.901 21.1211 432.128 25.8379 432.128 31.7306C432.128 37.5564 436.763 41.859 442.779 41.859C448.659 41.859 452.947 37.6981 452.947 31.9417C452.877 26.0464 448.173 21.1211 442.501 21.1211ZM242 47.1985C235.499 47.1985 229.621 49.1414 224.64 52.538V21.8159H210.808V78.5459C210.808 95.8124 224.848 109.685 241.931 109.685C259.152 109.685 273.261 95.8845 273.261 78.407C273.192 60.9989 259.36 47.1985 242 47.1985ZM170.072 48.1686C154.648 49.764 142.059 63.0807 142.059 78.9628C142.059 95.7456 156.379 109.824 173.115 109.824C189.781 109.824 204.168 95.7456 204.168 78.9628C204.168 71.8195 201.608 65.2293 197.459 60.0288L166.752 21.8854H148.837L170.072 48.1686ZM62.8693 82.4984L50.2107 49.4166H40.5333L27.8053 82.4984L15.08 49.4166H0L22.2693 107.675H31.952L45.3013 72.998L58.7893 107.673H68.4693L90.672 49.4166H75.664L62.8693 82.4984ZM360.336 62.6638V49.4166H346.504V107.536H360.336V82.9875C360.336 71.0578 373.064 63.7755 385.72 63.7755V49.4193H384.336C373.616 49.4193 365.869 53.305 360.336 62.6664V62.6638ZM404.256 62.6638V49.4166H390.424V107.536H404.256V82.9875C404.256 71.0578 416.981 63.7755 429.637 63.7755V49.4193H428.256C417.603 49.4193 409.859 53.305 404.256 62.6664V62.6638ZM121.104 107.534H134.933V21.8854H121.101V107.536L121.104 107.534ZM173.184 95.8124C163.637 95.8124 155.893 88.1158 155.893 78.5459C155.893 68.9065 163.637 61.2073 173.115 61.2073C182.728 61.2073 190.544 68.9039 190.544 78.5459C190.544 88.1158 182.728 95.8124 173.184 95.8124ZM241.931 95.8124C239.658 95.817 237.407 95.3716 235.307 94.5019C233.206 93.6323 231.298 92.3553 229.691 90.7445C228.085 89.1337 226.811 87.2207 225.945 85.1154C225.078 83.0101 224.634 80.7539 224.64 78.4764C224.64 68.976 232.04 61.2073 242 61.2073C251.96 61.2073 259.36 68.976 259.36 78.407C259.36 88.2548 251.475 95.8124 241.931 95.8124ZM97.104 107.534H110.936V49.4166H97.104V107.536V107.534ZM103.883 21.1211C98.28 21.1211 93.576 25.8379 93.576 31.8027C93.576 37.837 98.488 41.9285 103.883 41.9285C109.899 41.9285 114.464 36.9338 114.464 31.5248C114.395 26.0464 109.621 21.1211 103.883 21.1211ZM295.6 70.2935C297.952 64.5371 302.795 61.2073 309.987 61.2073C317.387 61.2073 321.883 64.7429 323.749 70.2935H295.6Z" fill="#EC208B"/>
</svg>
