<svg width="18" height="18" viewBox="0 0 18 18" fill="none" xmlns="http://www.w3.org/2000/svg">
<g clip-path="url(#clip0_2963_4699)">
<path d="M11.4649 1.72803L13.9299 6.04178M4.06992 6.04178L6.53491 1.72803M15.5075 6.04178H2.49232C2.30746 6.03803 2.12414 6.07593 1.95592 6.15265C1.7877 6.22937 1.63889 6.34296 1.52053 6.485C1.40217 6.62703 1.31728 6.79388 1.27214 6.97318C1.22701 7.15247 1.2228 7.33963 1.25982 7.52077L2.61557 14.2995C2.67319 14.5821 2.82808 14.8355 3.05328 15.0157C3.27848 15.1959 3.55973 15.2913 3.84807 15.2855H14.1518C14.4401 15.2913 14.7213 15.1959 14.9465 15.0157C15.1717 14.8355 15.3266 14.5821 15.3843 14.2995L16.74 7.52077C16.777 7.33963 16.7728 7.15247 16.7277 6.97318C16.6826 6.79388 16.5977 6.62703 16.4793 6.485C16.3609 6.34296 16.2121 6.22937 16.0439 6.15265C15.8757 6.07593 15.6924 6.03803 15.5075 6.04178Z" stroke="black" stroke-width="1.56864" stroke-linecap="round" stroke-linejoin="round"/>
</g>
<defs>
<clipPath id="clip0_2963_4699">
<rect width="17.255" height="17.255" fill="white" transform="translate(0.372559 0.372559)"/>
</clipPath>
</defs>
</svg>
