<svg width="56" height="57" viewBox="0 0 56 57" fill="none" xmlns="http://www.w3.org/2000/svg">
<path fill-rule="evenodd" clip-rule="evenodd" d="M27.75 56.25C43.0759 56.25 55.5 43.8259 55.5 28.5C55.5 13.1741 43.0759 0.75 27.75 0.75C12.4241 0.75 0 13.1741 0 28.5C0 43.8259 12.4241 56.25 27.75 56.25ZM36.7568 17.8598H17.9258C16.7703 17.8598 15.8335 18.7966 15.8335 19.9521C15.8335 21.1077 16.7703 22.0444 17.9258 22.0444H31.7055L16.4463 37.3036L19.4053 40.2626L34.6645 25.0034V38.7831C34.6645 39.9387 35.6012 40.8754 36.7568 40.8754C37.9124 40.8754 38.8491 39.9387 38.8491 38.7831V19.9521C38.8491 18.7966 37.9124 17.8598 36.7568 17.8598Z" fill="white"/>
</svg>
