<svg width="32" height="32" viewBox="0 0 32 32" fill="none" xmlns="http://www.w3.org/2000/svg">
<path d="M19.4676 10.7667C19.4676 9.81111 19.1511 9.04444 18.5182 8.46667C17.8854 7.88889 17.0462 7.6 16.0009 7.6C15.3565 7.6 14.7733 7.73911 14.2516 8.01733C13.7298 8.29556 13.2796 8.70089 12.9009 9.23333C12.5454 9.74444 12.0618 10.0391 11.4502 10.1173C10.8387 10.1956 10.3111 10.0342 9.86757 9.63333C9.55646 9.34444 9.38446 8.98889 9.35157 8.56667C9.31868 8.14444 9.42402 7.74444 9.66757 7.36667C10.3787 6.3 11.2845 5.47244 12.3849 4.884C13.4854 4.29556 14.6907 4.00089 16.0009 4C18.1565 4 19.9067 4.61111 21.2516 5.83333C22.5965 7.05556 23.2685 8.65556 23.2676 10.6333C23.2676 11.6333 23.0565 12.5333 22.6342 13.3333C22.212 14.1333 21.4342 15.0778 20.3009 16.1667C19.4787 16.9444 18.9231 17.5502 18.6342 17.984C18.3454 18.4178 18.1565 18.912 18.0676 19.4667C17.9787 20 17.7507 20.4444 17.3836 20.8C17.0165 21.1556 16.5778 21.3333 16.0676 21.3333C15.5574 21.3333 15.1187 21.1613 14.7516 20.8173C14.3845 20.4733 14.2009 20.0453 14.2009 19.5333C14.2009 18.6667 14.3898 17.8724 14.7676 17.1507C15.1454 16.4289 15.7787 15.6676 16.6676 14.8667C17.8009 13.8667 18.5511 13.0947 18.9182 12.5507C19.2854 12.0067 19.4685 11.412 19.4676 10.7667ZM16.0009 29.3333C15.2676 29.3333 14.64 29.0724 14.1182 28.5507C13.5965 28.0289 13.3351 27.4009 13.3342 26.6667C13.3334 25.9324 13.5947 25.3049 14.1182 24.784C14.6418 24.2631 15.2694 24.0018 16.0009 24C16.7325 23.9982 17.3605 24.2596 17.8849 24.784C18.4094 25.3084 18.6702 25.936 18.6676 26.6667C18.6649 27.3973 18.404 28.0253 17.8849 28.5507C17.3658 29.076 16.7378 29.3369 16.0009 29.3333Z" fill="black"/>
</svg>
