<svg width="26" height="27" viewBox="0 0 26 27" fill="none" xmlns="http://www.w3.org/2000/svg">
<path d="M22.7508 23.25L18.0459 18.5451M18.0459 18.5451C18.8507 17.7403 19.4891 16.7849 19.9247 15.7333C20.3602 14.6818 20.5844 13.5548 20.5844 12.4167C20.5844 11.2785 20.3602 10.1515 19.9247 9.09999C19.4891 8.04847 18.8507 7.09304 18.0459 6.28825C17.2411 5.48345 16.2857 4.84505 15.2342 4.4095C14.1827 3.97395 13.0557 3.74977 11.9175 3.74977C10.7793 3.74977 9.65234 3.97395 8.60083 4.4095C7.54931 4.84505 6.59388 5.48345 5.78908 6.28825C4.16373 7.91361 3.25061 10.1181 3.25061 12.4167C3.25061 14.7153 4.16373 16.9197 5.78908 18.5451C7.41444 20.1704 9.6189 21.0836 11.9175 21.0836C14.2161 21.0836 16.4206 20.1704 18.0459 18.5451Z" stroke="black" stroke-width="2" stroke-linecap="round" stroke-linejoin="round"/>
</svg>
