<svg width="40" height="40" viewBox="0 0 40 40" fill="none" xmlns="http://www.w3.org/2000/svg">
<g clip-path="url(#clip0_3076_4100)">
<path d="M6.99495 20.0002C13.1656 21.9644 18.0478 26.8436 20.0121 33.0104C21.9768 26.8436 26.859 21.9644 33.0303 20.0002C26.859 18.036 21.9768 13.1568 20.0121 6.98994C18.0478 13.1568 13.1656 18.036 6.99495 20.0002ZM20.0121 40C19.7638 39.9998 19.5256 39.9011 19.35 39.7256C19.1744 39.5501 19.0757 39.3121 19.0755 39.0639C19.0755 29.0676 10.9384 20.9366 0.936995 20.9366C0.688518 20.9365 0.450245 20.8378 0.274545 20.6622C0.0988452 20.4866 9.57339e-05 20.2485 0 20.0002C9.57339e-05 19.7519 0.0988452 19.5137 0.274545 19.3381C0.450245 19.1625 0.688518 19.0639 0.936995 19.0638C10.9384 19.0638 19.0755 10.9327 19.0755 0.93642C19.0757 0.688187 19.1744 0.450169 19.35 0.274609C19.5256 0.0990486 19.7637 0.000286102 20.0121 0C20.2606 0.000190735 20.4988 0.0989113 20.6745 0.274483C20.8501 0.450054 20.9489 0.688126 20.9491 0.93642C20.9491 10.9327 29.0862 19.0638 39.0887 19.0638C39.3327 19.0705 39.5644 19.1722 39.7346 19.347C39.9048 19.5219 40 19.7562 40 20.0002C40 20.2441 39.9048 20.4785 39.7346 20.6533C39.5644 20.8282 39.3327 20.9298 39.0887 20.9366C29.0862 20.9366 20.9491 29.0676 20.9491 39.0639C20.9489 39.3122 20.8501 39.5502 20.6744 39.7258C20.4987 39.9013 20.2605 39.9999 20.0121 40Z" fill="#005585"/>
<path d="M36.187 7.82447C33.7066 7.37431 31.7502 5.41953 31.2998 2.94022C31.281 2.83878 31.1224 2.83878 31.1036 2.94022C30.6536 5.41953 28.6976 7.37431 26.2168 7.82447C26.1152 7.84325 26.1152 8.00172 26.2168 8.02049C28.6976 8.47029 30.6536 10.4251 31.1036 12.9044C31.1224 13.0058 31.281 13.0058 31.2998 12.9044C31.7502 10.4251 33.7066 8.47029 36.187 8.02049C36.2885 8.00172 36.2885 7.84325 36.187 7.82447Z" fill="#005585"/>
</g>
<defs>
<clipPath id="clip0_3076_4100">
<rect width="40" height="40" fill="white"/>
</clipPath>
</defs>
</svg>
