<svg width="24" height="24" viewBox="0 0 24 24" fill="none" xmlns="http://www.w3.org/2000/svg">
<path d="M6.99978 2.99997C4.99978 3.39997 3.83311 5.83331 3.49978 6.99997C3.09978 12.5999 6.66644 18.6667 8.49978 21.0001L10.4998 15.5001H12.9998L15.9998 21.0001C16.6664 20.0001 18.1998 17.5001 18.9998 15.5001C19.9998 13.0001 19.9998 8.50006 19.9998 6.50006C19.9998 4.90006 17.9998 3.5 16.9998 2.99997C14.4998 2.83331 8.99978 2.59997 6.99978 2.99997Z" fill="#009BCB"/>
<path d="M21 7.47656C21 11.4816 20.25 14.5453 19.6228 16.4091C18.8044 18.8278 17.6888 20.6737 16.5619 21.4716C16.3475 21.6258 16.0955 21.7195 15.8323 21.7428C15.5692 21.766 15.3047 21.718 15.0666 21.6038C14.8251 21.4898 14.6182 21.3138 14.467 21.0938C14.3158 20.8737 14.2257 20.6175 14.2059 20.3512C14.1263 19.2731 13.7325 15.75 12 15.75C10.2675 15.75 9.87375 19.2741 9.79406 20.3541C9.76596 20.733 9.59586 21.0874 9.31776 21.3464C9.03966 21.6054 8.67407 21.7499 8.29406 21.7509C7.98685 21.7505 7.6875 21.6538 7.43812 21.4744C6.31312 20.6747 5.19562 18.8288 4.37719 16.4119C3.75 14.5453 3 11.4816 3 7.47656C3.0062 6.08824 3.56206 4.7589 4.54595 3.77939C5.52985 2.79989 6.86166 2.24999 8.25 2.25H15.75C17.1383 2.24999 18.4702 2.79989 19.454 3.77939C20.4379 4.7589 20.9938 6.08824 21 7.47656ZM19.5 7.47656C19.4938 6.48607 19.096 5.53825 18.3934 4.84005C17.6908 4.14185 16.7405 3.74998 15.75 3.75H8.25C7.25932 3.74998 6.30889 4.14198 5.60627 4.84038C4.90365 5.53878 4.50594 6.48684 4.5 7.4775C4.5 11.2791 5.20406 14.1712 5.79844 15.9281C6.83437 18.99 7.95469 19.9941 8.29313 20.2406C8.58469 16.3753 9.89906 14.25 12 14.25C14.1009 14.25 15.4172 16.3791 15.7022 20.2444C16.0397 20.0016 17.1619 19.0013 18.2016 15.9319C18.7959 14.1713 19.5 11.2781 19.5 7.47656Z" fill="#009BCB"/>
<path d="M14.0201 7.50001L16.032 6.69564C16.1234 6.6587 16.2067 6.60413 16.277 6.53502C16.3473 6.46592 16.4033 6.38364 16.4419 6.29288C16.4804 6.20213 16.5006 6.10468 16.5015 6.00609C16.5024 5.9075 16.4838 5.80971 16.4469 5.71829C16.4099 5.62688 16.3553 5.54364 16.2862 5.47332C16.2171 5.403 16.1349 5.34698 16.0441 5.30846C15.9533 5.26994 15.8559 5.24967 15.7573 5.24881C15.6587 5.24795 15.5609 5.26652 15.4695 5.30345L12.0008 6.69189L8.53202 5.30345C8.4406 5.26652 8.34281 5.24795 8.24422 5.24881C8.14563 5.24967 8.04818 5.26994 7.95743 5.30846C7.86667 5.34698 7.78439 5.403 7.71529 5.47332C7.64618 5.54364 7.59161 5.62688 7.55467 5.71829C7.51774 5.80971 7.49917 5.9075 7.50003 6.00609C7.50089 6.10468 7.52116 6.20213 7.55968 6.29288C7.5982 6.38364 7.65422 6.46592 7.72454 6.53502C7.79486 6.60413 7.8781 6.6587 7.96952 6.69564L9.98139 7.50001L7.96952 8.30345C7.8781 8.34038 7.79486 8.39496 7.72454 8.46407C7.65422 8.53317 7.5982 8.61545 7.55968 8.70621C7.52116 8.79696 7.50089 8.89441 7.50003 8.993C7.49917 9.09159 7.51774 9.18938 7.55467 9.28079C7.59161 9.37221 7.64618 9.45545 7.71529 9.52577C7.78439 9.59609 7.86667 9.65211 7.95743 9.69063C8.04818 9.72915 8.14563 9.74942 8.24422 9.75028C8.34281 9.75114 8.4406 9.73257 8.53202 9.69564L12.0008 8.3072L15.4695 9.69564C15.6541 9.77023 15.8608 9.76843 16.0441 9.69063C16.2274 9.61283 16.3723 9.46541 16.4469 9.28079C16.5215 9.09618 16.5196 8.88949 16.4419 8.70621C16.3641 8.52292 16.2166 8.37804 16.032 8.30345L14.0201 7.50001Z" fill="white"/>
</svg>
