<svg width="25" height="24" viewBox="0 0 25 24" fill="none" xmlns="http://www.w3.org/2000/svg">
<path d="M16.1152 6.69562L14.1034 7.5L16.1152 8.30344C16.2998 8.37803 16.4473 8.5229 16.5251 8.70619C16.6029 8.88948 16.6047 9.09617 16.5301 9.28078C16.4555 9.4654 16.3106 9.61282 16.1273 9.69062C15.944 9.76842 15.7373 9.77022 15.5527 9.69562L12.084 8.30719L8.61523 9.69562C8.52382 9.73256 8.42603 9.75113 8.32744 9.75027C8.22885 9.74941 8.1314 9.72914 8.04065 9.69062C7.94989 9.6521 7.86761 9.59608 7.79851 9.52576C7.7294 9.45544 7.67482 9.37219 7.63789 9.28078C7.60096 9.18937 7.58239 9.09158 7.58325 8.99299C7.58411 8.8944 7.60438 8.79695 7.6429 8.70619C7.68142 8.61544 7.73744 8.53316 7.80776 8.46405C7.87808 8.39495 7.96132 8.34037 8.05273 8.30344L10.0646 7.5L8.05273 6.69562C7.96132 6.65869 7.87808 6.60411 7.80776 6.53501C7.73744 6.4659 7.68142 6.38363 7.6429 6.29287C7.60438 6.20212 7.58411 6.10466 7.58325 6.00607C7.58239 5.90749 7.60096 5.80969 7.63789 5.71828C7.67482 5.62687 7.7294 5.54363 7.79851 5.47331C7.86761 5.40299 7.94989 5.34697 8.04065 5.30844C8.1314 5.26992 8.22885 5.24965 8.32744 5.24879C8.42603 5.24794 8.52382 5.2665 8.61523 5.30344L12.084 6.69187L15.5527 5.30344C15.6441 5.2665 15.7419 5.24794 15.8405 5.24879C15.9391 5.24965 16.0366 5.26992 16.1273 5.30844C16.2181 5.34697 16.3004 5.40299 16.3695 5.47331C16.4386 5.54363 16.4931 5.62687 16.5301 5.71828C16.567 5.80969 16.5856 5.90749 16.5847 6.00607C16.5839 6.10466 16.5636 6.20212 16.5251 6.29287C16.4865 6.38363 16.4305 6.4659 16.3602 6.53501C16.2899 6.60411 16.2066 6.65869 16.1152 6.69562ZM21.084 7.47656C21.084 11.4816 20.334 14.5453 19.7068 16.4091C18.8884 18.8278 17.7727 20.6737 16.6459 21.4716C16.4314 21.6258 16.1794 21.7195 15.9163 21.7428C15.6532 21.766 15.3887 21.718 15.1505 21.6038C14.9091 21.4898 14.7022 21.3138 14.551 21.0938C14.3998 20.8737 14.3097 20.6175 14.2899 20.3512C14.2102 19.2731 13.8165 15.75 12.084 15.75C10.3515 15.75 9.95773 19.2741 9.87805 20.3541C9.84994 20.733 9.67984 21.0874 9.40174 21.3464C9.12365 21.6054 8.75805 21.7499 8.37805 21.7509C8.07084 21.7505 7.77149 21.6538 7.52211 21.4744C6.39711 20.6747 5.27961 18.8288 4.46117 16.4119C3.83398 14.5453 3.08398 11.4816 3.08398 7.47656C3.09018 6.08824 3.64604 4.7589 4.62994 3.77939C5.61383 2.79989 6.94565 2.24999 8.33398 2.25H15.834C17.2223 2.24999 18.5541 2.79989 19.538 3.77939C20.5219 4.7589 21.0778 6.08824 21.084 7.47656ZM19.584 7.47656C19.5778 6.48607 19.18 5.53825 18.4774 4.84005C17.7748 4.14185 16.8245 3.74998 15.834 3.75H8.33398C7.34331 3.74998 6.39288 4.14198 5.69026 4.84038C4.98764 5.53879 4.58993 6.48684 4.58398 7.4775C4.58398 11.2791 5.28805 14.1712 5.88242 15.9281C6.91836 18.99 8.03867 19.9941 8.37711 20.2406C8.66867 16.3753 9.98305 14.25 12.084 14.25C14.1849 14.25 15.5012 16.3791 15.7862 20.2444C16.1237 20.0016 17.2459 19.0013 18.2855 15.9319C18.8799 14.1713 19.584 11.2791 19.584 7.4775V7.47656Z" fill="black" fill-opacity="0.36"/>
</svg>
