<svg width="60" height="61" viewBox="0 0 60 61" fill="none" xmlns="http://www.w3.org/2000/svg">
<path d="M40.5047 26.0117C40.5047 22.7034 37.8226 20.0212 34.5142 20.0212C32.8769 20.0212 30.7628 21.2687 29.9987 23.1668C29.2335 21.2687 27.1206 20.0212 25.4827 20.0212C22.1738 20.0212 19.4922 22.7034 19.4922 26.0117C19.4922 30.9857 27.0447 40.7812 27.0447 40.7812L29.9987 36.2514L32.9516 40.7812C32.9516 40.7812 40.5047 30.9857 40.5047 26.0117Z" fill="white"/>
<path d="M16.9367 19.3711L7.66602 10.1032L9.69645 8.0722L18.9677 17.3401L16.9367 19.3711Z" fill="white"/>
<path d="M50.3 52.7305L41.0293 43.4626L43.0597 41.4316L52.331 50.6995L50.3 52.7305Z" fill="white"/>
<path d="M12.9484 29.1523L0 27.1047L0.449055 24.2659L13.3974 26.3135L12.9484 29.1523Z" fill="white"/>
<path d="M59.5519 36.5352L46.6035 34.482L47.0526 31.6432L60.0009 33.6963L59.5519 36.5352Z" fill="white"/>
<path d="M3.7889 45.3672L2.48438 42.8091L14.1664 36.8567L15.471 39.4149L3.7889 45.3672Z" fill="white"/>
<path d="M45.8319 23.9453L44.5273 21.3872L56.2094 15.4349L57.5139 17.993L45.8319 23.9453Z" fill="white"/>
<path d="M17.5913 57.9141L15.0332 56.6123L20.9855 44.9319L23.5436 46.2337L17.5913 57.9141Z" fill="white"/>
<path d="M39.0132 15.875L36.4551 14.5732L42.4057 2.88731L44.9644 4.18907L39.0132 15.875Z" fill="white"/>
<path d="M33.2962 60.4023L31.2441 47.454L34.0802 47.0055L36.1322 59.9533L33.2962 60.4023Z" fill="white"/>
<path d="M25.9176 13.8008L23.8672 0.852403L26.7027 0.403902L28.7536 13.3517L25.9176 13.8008Z" fill="white"/>
</svg>
