<svg width="24" height="24" viewBox="0 0 24 24" fill="none" xmlns="http://www.w3.org/2000/svg">
<path d="M21 7.47656C21 11.4816 20.25 14.5453 19.6228 16.4091C18.8044 18.8278 17.6888 20.6737 16.5619 21.4716C16.3475 21.6258 16.0955 21.7195 15.8323 21.7428C15.5692 21.766 15.3047 21.718 15.0666 21.6038C14.8251 21.4898 14.6182 21.3138 14.467 21.0938C14.3158 20.8737 14.2257 20.6175 14.2059 20.3512C14.1263 19.2731 13.7325 15.75 12 15.75C10.2675 15.75 9.87375 19.2741 9.79406 20.3541C9.76596 20.733 9.59586 21.0874 9.31776 21.3464C9.03966 21.6054 8.67407 21.7499 8.29406 21.7509C7.98685 21.7505 7.6875 21.6538 7.43812 21.4744C6.31312 20.6747 5.19562 18.8288 4.37719 16.4119C3.75 14.5453 3 11.4816 3 7.47656C3.0062 6.08824 3.56206 4.7589 4.54595 3.77939C5.28013 3.04849 6.20805 2.55679 7.20861 2.35429C7.89068 2.21625 8.59051 2.3408 9.26291 2.52011L9.9387 2.70032C11.2893 3.06048 12.7107 3.06048 14.0613 2.70032L14.7371 2.52011C15.4095 2.3408 16.1093 2.21625 16.7914 2.35429C17.792 2.55679 18.7199 3.04849 19.454 3.77939C20.4379 4.7589 20.9938 6.08824 21 7.47656ZM19.5 7.47656C19.4938 6.48607 19.096 5.53825 18.3934 4.84005C17.6908 4.14185 16.7405 3.74998 15.75 3.75L14.0613 4.20032C12.7107 4.56048 11.2893 4.56048 9.9387 4.20032L8.25 3.75C7.25932 3.74998 6.30889 4.14198 5.60627 4.84038C4.90365 5.53878 4.50594 6.48684 4.5 7.4775C4.5 11.2791 5.20406 14.1712 5.79844 15.9281C6.83437 18.99 7.95469 19.9941 8.29313 20.2406C8.58469 16.3753 9.89906 14.25 12 14.25C14.1009 14.25 15.4172 16.3791 15.7022 20.2444C16.0397 20.0016 17.1619 19.0013 18.2016 15.9319C18.7959 14.1713 19.5 11.2781 19.5 7.47656Z" fill="#005585"/>
</svg>
