<svg width="25" height="25" viewBox="0 0 25 25" fill="none" xmlns="http://www.w3.org/2000/svg">
<g id="tooth_fill">
<path id="Vector 357" d="M7.22695 3.26533C5.22695 3.66533 4.06028 6.09866 3.72695 7.26533C3.32695 12.8653 6.89361 18.932 8.72695 21.2654L10.7269 15.7654H13.2269L16.2269 21.2654C16.8936 20.2654 18.4269 17.7654 19.2269 15.7654C20.2269 13.2654 20.2269 8.76542 20.2269 6.76542C20.2269 5.16542 18.2269 3.76536 17.2269 3.26533C16.0173 3.18469 14.1052 4.08843 12.2272 4.05587C10.2239 4.02114 8.25922 3.05888 7.22695 3.26533Z" fill="#009BCB"/>
<path id="Vector" d="M21.2269 7.74219C21.2269 11.7472 20.4769 14.8109 19.8497 16.6747C19.0313 19.0934 17.9157 20.9394 16.7888 21.7372C16.5744 21.8914 16.3224 21.9851 16.0593 22.0084C15.7962 22.0316 15.5316 21.9836 15.2935 21.8694C15.052 21.7554 14.8451 21.5795 14.6939 21.3594C14.5427 21.1394 14.4526 20.8831 14.4329 20.6169C14.3532 19.5387 13.9594 16.0156 12.2269 16.0156C10.4944 16.0156 10.1007 19.5397 10.021 20.6197C9.99289 20.9987 9.82278 21.3531 9.54469 21.612C9.26659 21.871 8.901 22.0155 8.52099 22.0166C8.21378 22.0161 7.91443 21.9194 7.66505 21.74C6.54005 20.9403 5.42255 19.0944 4.60412 16.6775C3.97693 14.8109 3.22693 11.7472 3.22693 7.74219C3.23313 6.35387 3.78898 5.02452 4.77288 4.04502C5.50706 3.31411 6.43497 2.82242 7.43554 2.61992C8.11761 2.48187 8.81744 2.60643 9.48984 2.78574L10.1656 2.96594C11.5162 3.32611 12.9376 3.32611 14.2882 2.96594L14.964 2.78574C15.6364 2.60643 16.3363 2.48187 17.0183 2.61992C18.0189 2.82242 18.9468 3.31411 19.681 4.04502C20.6649 5.02452 21.2207 6.35387 21.2269 7.74219ZM19.7269 7.74219C19.7207 6.75169 19.3229 5.80388 18.6203 5.10567C17.9177 4.40747 16.9674 4.01561 15.9769 4.01562L14.2882 4.46594C12.9376 4.8261 11.5162 4.82611 10.1656 4.46594L8.47693 4.01562C7.48625 4.01561 6.53582 4.40761 5.8332 5.10601C5.13058 5.80441 4.73287 6.75247 4.72693 7.74312C4.72693 11.5447 5.43099 14.4369 6.02537 16.1937C7.0613 19.2556 8.18162 20.2597 8.52005 20.5062C8.81162 16.6409 10.126 14.5156 12.2269 14.5156C14.3279 14.5156 15.6441 16.6447 15.9291 20.51C16.2666 20.2672 17.3888 19.2669 18.4285 16.1975C19.0229 14.4369 19.7269 11.5437 19.7269 7.74219Z" fill="#009BCB"/>
</g>
</svg>
